<svg width="198" height="197" viewBox="0 0 198 197" fill="none" xmlns="http://www.w3.org/2000/svg">
<path d="M7.344 127V108.856L27.504 81.496C30 78.328 31.968 75.592 33.408 73.288C34.848 70.888 35.904 68.68 36.576 66.664C37.344 64.648 37.776 62.632 37.872 60.616C38.064 58.6 38.16 56.296 38.16 53.704C38.16 49.288 37.296 46.12 35.568 44.2C33.936 42.184 30.816 41.176 26.208 41.176C23.712 41.176 20.928 41.512 17.856 42.184C14.784 42.76 12.144 43.288 9.936 43.768V27.352C10.32 27.256 11.136 27.112 12.384 26.92C13.728 26.632 15.264 26.344 16.992 26.056C18.816 25.768 20.688 25.528 22.608 25.336C24.624 25.048 26.496 24.904 28.224 24.904C33.984 24.904 38.736 25.576 42.48 26.92C46.224 28.168 49.152 30.088 51.264 32.68C53.472 35.176 55.008 38.296 55.872 42.04C56.736 45.784 57.168 50.104 57.168 55C57.168 58.36 57.072 61.288 56.88 63.784C56.688 66.184 56.208 68.536 55.44 70.84C54.768 73.048 53.712 75.352 52.272 77.752C50.928 80.056 49.104 82.792 46.8 85.96L28.8 110.584H57.6V127H7.344Z" fill="#1E0B00"/>
<path d="M70.912 126.112C70.592 127.04 70.24 127.888 69.856 128.656C69.504 129.456 69.088 130.128 68.608 130.672C68.128 131.216 67.536 131.632 66.832 131.92C66.16 132.24 65.344 132.4 64.384 132.4C63.872 132.4 63.36 132.368 62.848 132.304C62.368 132.24 61.984 132.176 61.696 132.112L61.984 128.608C62.336 128.672 62.72 128.72 63.136 128.752C63.552 128.784 64 128.8 64.48 128.8C64.96 128.8 65.36 128.608 65.68 128.224C66.032 127.872 66.336 127.344 66.592 126.64L67.6 124H66.64L61.264 100H65.584L69.472 119.824L75.856 100H80.128L70.912 126.112Z" fill="#1E0B00"/>
<path d="M86.224 117.12C86.224 118.528 85.8 119.544 84.952 120.168C84.104 120.792 82.968 121.104 81.544 121.104C81.224 121.104 80.928 121.096 80.656 121.08C80.4 121.064 80.104 121.04 79.768 121.008V121.872C79.768 122.416 79.816 122.864 79.912 123.216C80.024 123.552 80.16 123.808 80.32 123.984C80.496 124.16 80.688 124.28 80.896 124.344C81.104 124.408 81.32 124.44 81.544 124.44C82.328 124.44 82.976 124.392 83.488 124.296C84 124.2 84.44 124.112 84.808 124.032L84.64 125.76C84.448 125.808 84.224 125.864 83.968 125.928C83.712 125.976 83.448 126.016 83.176 126.048C82.904 126.08 82.632 126.104 82.36 126.12C82.104 126.152 81.864 126.168 81.64 126.168C81.064 126.168 80.536 126.112 80.056 126C79.592 125.888 79.184 125.672 78.832 125.352C78.496 125.032 78.232 124.584 78.04 124.008C77.848 123.416 77.752 122.648 77.752 121.704C77.752 120.264 77.856 119.048 78.064 118.056C78.288 117.048 78.608 116.232 79.024 115.608C79.44 114.984 79.944 114.536 80.536 114.264C81.144 113.976 81.824 113.832 82.576 113.832C83.248 113.832 83.816 113.928 84.28 114.12C84.744 114.296 85.12 114.544 85.408 114.864C85.696 115.168 85.904 115.52 86.032 115.92C86.16 116.304 86.224 116.704 86.224 117.12ZM82.552 115.536C82.2 115.536 81.872 115.6 81.568 115.728C81.28 115.856 81.024 116.072 80.8 116.376C80.576 116.664 80.384 117.056 80.224 117.552C80.08 118.032 79.968 118.632 79.888 119.352C80.128 119.384 80.344 119.408 80.536 119.424C80.744 119.424 80.96 119.424 81.184 119.424C82.304 119.424 83.104 119.256 83.584 118.92C84.064 118.584 84.304 118.016 84.304 117.216C84.304 116.992 84.28 116.776 84.232 116.568C84.184 116.36 84.096 116.184 83.968 116.04C83.84 115.88 83.664 115.76 83.44 115.68C83.216 115.584 82.92 115.536 82.552 115.536ZM88.7213 120.528C88.8333 119.344 89.0253 118.328 89.2973 117.48C89.5693 116.632 89.9373 115.944 90.4013 115.416C90.8653 114.872 91.4333 114.472 92.1053 114.216C92.7773 113.96 93.5693 113.832 94.4813 113.832C94.7053 113.832 94.9533 113.848 95.2253 113.88C95.5133 113.912 95.7933 113.952 96.0653 114C96.3533 114.048 96.6253 114.104 96.8813 114.168C97.1373 114.232 97.3613 114.296 97.5533 114.36L96.7853 122.736C96.7853 122.768 96.7773 122.856 96.7613 123C96.7453 123.128 96.7373 123.304 96.7373 123.528C96.7373 124.136 97.0493 124.44 97.6733 124.44L97.5533 126H97.0973C96.5853 126 96.1453 125.88 95.7773 125.64C95.4253 125.4 95.1773 125.024 95.0333 124.512C94.7133 124.992 94.2893 125.392 93.7613 125.712C93.2333 126.016 92.5533 126.168 91.7213 126.168C90.6013 126.168 89.8093 125.8 89.3453 125.064C88.8813 124.328 88.6493 123.28 88.6493 121.92C88.6493 121.472 88.6733 121.008 88.7213 120.528ZM92.2493 124.44C92.6653 124.44 93.0253 124.368 93.3293 124.224C93.6333 124.064 93.8893 123.864 94.0973 123.624C94.3213 123.384 94.4893 123.112 94.6013 122.808C94.7133 122.504 94.7853 122.192 94.8173 121.872L95.3693 115.656C95.2093 115.624 95.0253 115.6 94.8173 115.584C94.6093 115.568 94.3613 115.56 94.0733 115.56C91.8493 115.56 90.7373 117.736 90.7373 122.088C90.7373 122.888 90.8493 123.48 91.0733 123.864C91.2973 124.248 91.6893 124.44 92.2493 124.44ZM107.034 116.064C106.826 116.016 106.586 115.976 106.314 115.944C106.058 115.896 105.818 115.872 105.594 115.872C105.194 115.872 104.85 115.984 104.562 116.208C104.274 116.416 104.034 116.688 103.842 117.024C103.65 117.36 103.498 117.736 103.386 118.152C103.29 118.568 103.226 118.976 103.194 119.376L102.618 126H100.578L101.61 114H103.29L103.338 115.488C103.658 115.008 104.026 114.616 104.442 114.312C104.874 113.992 105.378 113.832 105.954 113.832C106.242 113.832 106.474 113.848 106.65 113.88C106.842 113.912 107.026 113.944 107.202 113.976L107.034 116.064ZM115.411 122.04C115.411 123.464 115.067 124.512 114.379 125.184C113.691 125.84 112.579 126.168 111.043 126.168C110.355 126.168 109.771 126.128 109.291 126.048C108.827 125.968 108.459 125.888 108.187 125.808L108.355 124.056C108.499 124.088 108.683 124.128 108.907 124.176C109.131 124.208 109.371 124.248 109.627 124.296C109.899 124.328 110.179 124.36 110.467 124.392C110.771 124.424 111.067 124.44 111.355 124.44C111.739 124.44 112.051 124.368 112.291 124.224C112.547 124.08 112.747 123.904 112.891 123.696C113.035 123.472 113.131 123.24 113.179 123C113.243 122.744 113.275 122.504 113.275 122.28C113.275 121.848 113.171 121.528 112.963 121.32C112.771 121.096 112.419 120.92 111.907 120.792C110.803 120.536 110.011 120.152 109.531 119.64C109.051 119.112 108.811 118.488 108.811 117.768C108.811 116.328 109.187 115.312 109.939 114.72C110.707 114.128 111.763 113.832 113.107 113.832C113.699 113.832 114.219 113.88 114.667 113.976C115.131 114.056 115.475 114.128 115.699 114.192L115.555 115.944C115.363 115.896 115.171 115.848 114.979 115.8C114.787 115.752 114.587 115.712 114.379 115.68C114.171 115.648 113.939 115.624 113.683 115.608C113.443 115.576 113.163 115.56 112.843 115.56C112.459 115.56 112.139 115.616 111.883 115.728C111.643 115.84 111.451 115.992 111.307 116.184C111.163 116.36 111.059 116.568 110.995 116.808C110.947 117.032 110.923 117.264 110.923 117.504C110.923 117.888 111.035 118.192 111.259 118.416C111.483 118.624 111.843 118.776 112.339 118.872C113.459 119.096 114.251 119.48 114.715 120.024C115.179 120.552 115.411 121.224 115.411 122.04Z" fill="#1E0B00"/>
<path d="M12.102 139.728V147.395H20.138V151.823H12.102V164H6.485V135.3H21.163V139.728H12.102ZM30.3319 143.5V156.538C30.3319 157.221 30.3866 157.768 30.4959 158.178C30.6053 158.588 30.7556 158.902 30.9469 159.121C31.1383 159.34 31.3706 159.49 31.6439 159.572C31.9446 159.627 32.2726 159.654 32.6279 159.654C33.6666 159.654 34.4046 159.326 34.8419 158.67C35.3066 158.014 35.5389 157.317 35.5389 156.579V143.5H40.9919V164H36.5639L36.1949 162.401C35.5663 163.002 34.8556 163.481 34.0629 163.836C33.2703 164.191 32.3546 164.369 31.3159 164.369C30.0313 164.369 28.9653 164.205 28.1179 163.877C27.2979 163.549 26.6419 163.057 26.1499 162.401C25.6853 161.718 25.3573 160.884 25.1659 159.9C24.9746 158.889 24.8789 157.713 24.8789 156.374V143.5H30.3319ZM54.5046 163.877C54.204 163.932 53.6983 164 52.9876 164.082C52.3043 164.164 51.5663 164.205 50.7736 164.205C49.079 164.205 47.9036 163.699 47.2476 162.688C46.619 161.649 46.3046 160.064 46.3046 157.932V135.3H51.7576V157.727C51.7576 158.383 51.8396 158.848 52.0036 159.121C52.1676 159.367 52.5093 159.49 53.0286 159.49C53.3293 159.49 53.6163 159.476 53.8896 159.449C54.1903 159.394 54.3953 159.353 54.5046 159.326V163.877ZM66.3963 163.877C66.0956 163.932 65.5899 164 64.8793 164.082C64.1959 164.164 63.4579 164.205 62.6653 164.205C60.9706 164.205 59.7953 163.699 59.1393 162.688C58.5106 161.649 58.1963 160.064 58.1963 157.932V135.3H63.6493V157.727C63.6493 158.383 63.7313 158.848 63.8953 159.121C64.0593 159.367 64.4009 159.49 64.9203 159.49C65.2209 159.49 65.5079 159.476 65.7812 159.449C66.0819 159.394 66.2869 159.353 66.3963 159.326V163.877ZM83.9869 155.472C83.9869 157.385 83.7409 158.93 83.2489 160.105C82.7842 161.253 82.1282 162.141 81.2809 162.77C80.4609 163.399 79.4632 163.809 78.2879 164C77.1399 164.191 75.8825 164.287 74.5159 164.287C74.0785 164.287 73.5865 164.273 73.0399 164.246C72.5205 164.219 71.9875 164.178 71.4409 164.123C70.9215 164.068 70.4159 164 69.9239 163.918C69.4592 163.836 69.0492 163.754 68.6939 163.672V158.793C69.0219 158.875 69.4045 158.957 69.8419 159.039C70.3065 159.121 70.7849 159.189 71.2769 159.244C71.7689 159.299 72.2609 159.353 72.7529 159.408C73.2449 159.435 73.6959 159.449 74.1059 159.449C75.3905 159.449 76.4019 159.189 77.1399 158.67C77.9052 158.123 78.2879 157.194 78.2879 155.882C78.2879 155.144 78.2059 154.515 78.0419 153.996C77.9052 153.477 77.6865 153.053 77.3859 152.725C77.0852 152.397 76.7162 152.137 76.2789 151.946C75.8415 151.755 75.3495 151.604 74.8029 151.495C72.5069 151.03 70.8669 150.142 69.8829 148.83C68.9262 147.518 68.4479 145.659 68.4479 143.254C68.4479 141.723 68.6529 140.439 69.0629 139.4C69.5002 138.361 70.1289 137.514 70.9489 136.858C71.7962 136.202 72.8212 135.737 74.0239 135.464C75.2539 135.163 76.6479 135.013 78.2059 135.013C78.5885 135.013 79.0122 135.027 79.4769 135.054C79.9415 135.081 80.4062 135.136 80.8709 135.218C81.3355 135.273 81.7729 135.341 82.1829 135.423C82.6202 135.478 82.9892 135.546 83.2899 135.628V140.466C82.9345 140.384 82.5109 140.316 82.0189 140.261C81.5542 140.179 81.0622 140.111 80.5429 140.056C80.0509 139.974 79.5589 139.919 79.0669 139.892C78.5749 139.865 78.1512 139.851 77.7959 139.851C76.6205 139.851 75.7185 140.083 75.0899 140.548C74.4612 141.013 74.1469 141.764 74.1469 142.803C74.1469 143.459 74.1879 144.006 74.2699 144.443C74.3792 144.853 74.5569 145.195 74.8029 145.468C75.0489 145.714 75.3769 145.919 75.7869 146.083C76.1969 146.247 76.7299 146.397 77.3859 146.534C78.3699 146.725 79.2582 147.026 80.0509 147.436C80.8709 147.819 81.5679 148.352 82.1419 149.035C82.7432 149.718 83.1942 150.579 83.4949 151.618C83.8229 152.657 83.9869 153.941 83.9869 155.472ZM93.7378 148.215V157.85C93.7378 158.506 93.8608 158.984 94.1068 159.285C94.3801 159.558 94.8311 159.695 95.4598 159.695C95.8971 159.695 96.3618 159.654 96.8538 159.572C97.3458 159.49 97.7421 159.408 98.0428 159.326V163.877C97.9061 163.904 97.6738 163.945 97.3458 164C97.0178 164.082 96.6488 164.137 96.2388 164.164C95.8288 164.219 95.4051 164.26 94.9678 164.287C94.5305 164.342 94.1205 164.369 93.7378 164.369C92.5898 164.369 91.6605 164.191 90.9498 163.836C90.2391 163.453 89.6788 162.961 89.2688 162.36C88.8861 161.731 88.6265 161.021 88.4898 160.228C88.3531 159.408 88.2848 158.547 88.2848 157.645V148.215H85.6198V143.5H88.2848V138.58H93.7378V143.5H97.8378V148.215H93.7378ZM116.11 164C115.563 164 114.934 163.891 114.224 163.672C113.513 163.453 112.966 163.002 112.584 162.319C112.064 162.948 111.381 163.453 110.534 163.836C109.686 164.191 108.566 164.369 107.172 164.369C106.27 164.369 105.436 164.26 104.671 164.041C103.905 163.822 103.236 163.467 102.662 162.975C102.115 162.456 101.678 161.786 101.35 160.966C101.049 160.119 100.899 159.066 100.899 157.809C100.899 155.322 101.637 153.559 103.113 152.52C104.616 151.481 106.775 150.962 109.591 150.962H111.436V150.101C111.436 149.308 111.231 148.707 110.821 148.297C110.438 147.86 109.727 147.641 108.689 147.641C107.513 147.641 106.42 147.737 105.409 147.928C104.425 148.092 103.413 148.324 102.375 148.625V143.951C102.757 143.842 103.208 143.746 103.728 143.664C104.247 143.555 104.78 143.459 105.327 143.377C105.901 143.295 106.475 143.24 107.049 143.213C107.65 143.158 108.197 143.131 108.689 143.131C110.438 143.131 111.846 143.281 112.912 143.582C113.978 143.855 114.798 144.293 115.372 144.894C115.973 145.495 116.369 146.261 116.561 147.19C116.779 148.119 116.889 149.213 116.889 150.47V158.588C116.889 158.998 116.998 159.326 117.217 159.572C117.435 159.791 117.859 159.9 118.488 159.9V164H116.11ZM108.73 159.777C109.304 159.777 109.755 159.681 110.083 159.49C110.438 159.271 110.711 159.012 110.903 158.711C111.121 158.41 111.258 158.096 111.313 157.768C111.395 157.413 111.436 157.098 111.436 156.825V154.98H109.386C108.511 154.98 107.8 155.171 107.254 155.554C106.707 155.937 106.434 156.593 106.434 157.522C106.434 158.151 106.598 158.684 106.926 159.121C107.281 159.558 107.882 159.777 108.73 159.777ZM134.961 163.754C134.305 163.945 133.54 164.096 132.665 164.205C131.79 164.314 130.984 164.369 130.246 164.369C128.907 164.369 127.718 164.232 126.679 163.959C125.668 163.686 124.807 163.153 124.096 162.36C123.413 161.567 122.88 160.46 122.497 159.039C122.142 157.59 121.964 155.691 121.964 153.34C121.964 149.677 122.675 147.067 124.096 145.509C125.545 143.924 127.608 143.131 130.287 143.131C130.97 143.131 131.763 143.199 132.665 143.336C133.594 143.445 134.36 143.568 134.961 143.705V148.502C134.578 148.42 134.223 148.352 133.895 148.297C133.594 148.215 133.28 148.147 132.952 148.092C132.624 148.037 132.269 147.996 131.886 147.969C131.503 147.942 131.052 147.928 130.533 147.928C130.068 147.928 129.645 148.01 129.262 148.174C128.907 148.338 128.606 148.652 128.36 149.117C128.114 149.554 127.923 150.183 127.786 151.003C127.649 151.796 127.581 152.848 127.581 154.16C127.581 156.21 127.813 157.631 128.278 158.424C128.77 159.189 129.494 159.572 130.451 159.572C131.49 159.572 132.351 159.504 133.034 159.367C133.717 159.23 134.36 159.107 134.961 158.998V163.754ZM150.017 164L145.589 155.513L144.728 156.62V164H139.275V135.3H144.728V149.65L149.648 143.5H155.88L148.951 151.7L156.29 164H150.017ZM12.456 182.528C12.456 181.2 12.408 180.104 12.312 179.24C12.216 178.376 12.056 177.688 11.832 177.176C11.608 176.664 11.312 176.304 10.944 176.096C10.576 175.888 10.12 175.784 9.576 175.784C9.032 175.784 8.576 175.888 8.208 176.096C7.84 176.304 7.544 176.664 7.32 177.176C7.096 177.688 6.936 178.376 6.84 179.24C6.744 180.104 6.696 181.2 6.696 182.528C6.696 183.824 6.744 184.912 6.84 185.792C6.936 186.656 7.096 187.36 7.32 187.904C7.544 188.448 7.84 188.84 8.208 189.08C8.576 189.304 9.032 189.416 9.576 189.416C10.12 189.416 10.576 189.304 10.944 189.08C11.312 188.84 11.608 188.448 11.832 187.904C12.056 187.36 12.216 186.656 12.312 185.792C12.408 184.912 12.456 183.824 12.456 182.528ZM14.592 182.408C14.592 183.88 14.512 185.168 14.352 186.272C14.208 187.36 13.944 188.272 13.56 189.008C13.192 189.728 12.68 190.272 12.024 190.64C11.384 190.992 10.568 191.168 9.576 191.168C8.584 191.168 7.76 190.992 7.104 190.64C6.464 190.272 5.952 189.728 5.568 189.008C5.2 188.272 4.936 187.36 4.776 186.272C4.632 185.168 4.56 183.88 4.56 182.408C4.56 181 4.632 179.776 4.776 178.736C4.936 177.68 5.2 176.808 5.568 176.12C5.952 175.416 6.464 174.896 7.104 174.56C7.76 174.208 8.584 174.032 9.576 174.032C10.568 174.032 11.384 174.208 12.024 174.56C12.68 174.896 13.192 175.416 13.56 176.12C13.944 176.808 14.208 177.68 14.352 178.736C14.512 179.776 14.592 181 14.592 182.408ZM20.4684 180.752V191H18.4284V180.752H16.8684V179H18.4284V177.128C18.4284 176.088 18.7084 175.312 19.2684 174.8C19.8284 174.288 20.5644 174.032 21.4764 174.032C21.9884 174.032 22.4284 174.072 22.7964 174.152C23.1804 174.216 23.4924 174.272 23.7324 174.32V176.024C23.4764 175.96 23.1964 175.904 22.8924 175.856C22.5884 175.792 22.2204 175.76 21.7884 175.76C21.3564 175.76 21.0284 175.872 20.8044 176.096C20.5804 176.32 20.4684 176.608 20.4684 176.96V179H23.3724V180.752H20.4684ZM41.9559 191H38.6919L37.0839 183.704L35.3319 191H32.2119L31.3959 174.2H33.2439L33.9639 189.68L36.1239 181.28H38.0919L40.2759 189.68L41.0199 174.2H42.7719L41.9559 191ZM47.3344 185.72C47.3504 186.504 47.4064 187.144 47.5024 187.64C47.6144 188.12 47.7584 188.496 47.9344 188.768C48.1104 189.04 48.3184 189.224 48.5584 189.32C48.7984 189.4 49.0704 189.44 49.3744 189.44C50.0464 189.44 50.6544 189.4 51.1984 189.32C51.7584 189.224 52.2224 189.136 52.5904 189.056V190.784C52.2064 190.896 51.7184 190.984 51.1264 191.048C50.5504 191.128 50.0464 191.168 49.6144 191.168C48.9264 191.168 48.3104 191.096 47.7664 190.952C47.2384 190.808 46.7904 190.52 46.4224 190.088C46.0544 189.656 45.7744 189.04 45.5824 188.24C45.3904 187.424 45.2944 186.344 45.2944 185C45.2944 183.896 45.3824 182.952 45.5584 182.168C45.7504 181.384 46.0304 180.744 46.3984 180.248C46.7664 179.752 47.2224 179.392 47.7664 179.168C48.3104 178.944 48.9424 178.832 49.6624 178.832C51.0384 178.832 52.0224 179.288 52.6144 180.2C53.2224 181.096 53.5264 182.336 53.5264 183.92V185.72H47.3344ZM49.6144 180.536C49.2304 180.536 48.9024 180.592 48.6304 180.704C48.3584 180.816 48.1344 181.008 47.9584 181.28C47.7824 181.552 47.6464 181.92 47.5504 182.384C47.4544 182.832 47.3904 183.4 47.3584 184.088H51.5344V183.44C51.5344 182.528 51.3904 181.816 51.1024 181.304C50.8304 180.792 50.3344 180.536 49.6144 180.536ZM65.3769 184.232C65.3769 185.544 65.2889 186.648 65.1129 187.544C64.9369 188.424 64.6489 189.136 64.2489 189.68C63.8489 190.208 63.3209 190.592 62.6649 190.832C62.0249 191.056 61.2249 191.168 60.2649 191.168C59.8329 191.168 59.4569 191.16 59.1369 191.144C58.8169 191.128 58.5209 191.104 58.2489 191.072C57.9929 191.04 57.7529 191.008 57.5289 190.976C57.3209 190.944 57.1049 190.912 56.8809 190.88V174.2H58.9209V179.888C59.6729 179.184 60.5609 178.832 61.5849 178.832C62.9929 178.832 63.9769 179.288 64.5369 180.2C65.0969 181.096 65.3769 182.44 65.3769 184.232ZM61.2009 180.56C60.8649 180.56 60.5529 180.624 60.2649 180.752C59.9929 180.88 59.7529 181.048 59.5449 181.256C59.3529 181.464 59.2009 181.688 59.0889 181.928C58.9769 182.152 58.9209 182.376 58.9209 182.6V189.344C59.0969 189.376 59.3129 189.4 59.5689 189.416C59.8249 189.432 60.1369 189.44 60.5049 189.44C61.0809 189.44 61.5449 189.336 61.8969 189.128C62.2649 188.92 62.5449 188.608 62.7369 188.192C62.9449 187.776 63.0889 187.264 63.1689 186.656C63.2489 186.032 63.2889 185.304 63.2889 184.472C63.2889 183.704 63.2489 183.072 63.1689 182.576C63.1049 182.08 62.9849 181.68 62.8089 181.376C62.6489 181.072 62.4329 180.864 62.1609 180.752C61.9049 180.624 61.5849 180.56 61.2009 180.56ZM82.0999 182.504C82.0999 181.064 82.0359 179.904 81.9079 179.024C81.7959 178.144 81.6279 177.464 81.4039 176.984C81.1799 176.504 80.9159 176.184 80.6119 176.024C80.3239 175.864 79.9959 175.784 79.6279 175.784C79.4039 175.784 79.1559 175.792 78.8839 175.808C78.6279 175.808 78.3799 175.816 78.1399 175.832C77.8519 175.848 77.5719 175.864 77.2999 175.88V189.32C77.5399 189.336 77.7959 189.352 78.0679 189.368C78.2919 189.384 78.5399 189.4 78.8119 189.416C79.0839 189.416 79.3479 189.416 79.6039 189.416C79.9719 189.416 80.3079 189.304 80.6119 189.08C80.9319 188.856 81.1959 188.48 81.4039 187.952C81.6279 187.408 81.7959 186.696 81.9079 185.816C82.0359 184.92 82.0999 183.816 82.0999 182.504ZM84.2359 182.336C84.2359 184.128 84.1319 185.6 83.9239 186.752C83.7319 187.888 83.4279 188.784 83.0119 189.44C82.6119 190.096 82.1079 190.552 81.4999 190.808C80.8919 191.048 80.1879 191.168 79.3879 191.168C78.9239 191.168 78.4439 191.16 77.9479 191.144C77.4679 191.144 77.0199 191.128 76.6039 191.096C76.1239 191.064 75.6599 191.032 75.2119 191V174.2C75.6439 174.168 76.0839 174.136 76.5319 174.104C76.9159 174.072 77.3319 174.056 77.7799 174.056C78.2439 174.04 78.6839 174.032 79.0999 174.032C79.9479 174.032 80.6919 174.136 81.3319 174.344C81.9719 174.536 82.5079 174.936 82.9399 175.544C83.3719 176.136 83.6919 176.976 83.8999 178.064C84.1239 179.136 84.2359 180.56 84.2359 182.336ZM89.4047 185.72C89.4207 186.504 89.4767 187.144 89.5727 187.64C89.6847 188.12 89.8287 188.496 90.0047 188.768C90.1807 189.04 90.3887 189.224 90.6287 189.32C90.8687 189.4 91.1407 189.44 91.4447 189.44C92.1167 189.44 92.7247 189.4 93.2687 189.32C93.8287 189.224 94.2927 189.136 94.6607 189.056V190.784C94.2767 190.896 93.7887 190.984 93.1967 191.048C92.6207 191.128 92.1167 191.168 91.6847 191.168C90.9967 191.168 90.3807 191.096 89.8367 190.952C89.3087 190.808 88.8607 190.52 88.4927 190.088C88.1247 189.656 87.8447 189.04 87.6527 188.24C87.4607 187.424 87.3647 186.344 87.3647 185C87.3647 183.896 87.4527 182.952 87.6287 182.168C87.8207 181.384 88.1007 180.744 88.4687 180.248C88.8367 179.752 89.2927 179.392 89.8367 179.168C90.3807 178.944 91.0127 178.832 91.7327 178.832C93.1087 178.832 94.0927 179.288 94.6847 180.2C95.2927 181.096 95.5967 182.336 95.5967 183.92V185.72H89.4047ZM91.6847 180.536C91.3007 180.536 90.9727 180.592 90.7007 180.704C90.4287 180.816 90.2047 181.008 90.0287 181.28C89.8527 181.552 89.7167 181.92 89.6207 182.384C89.5247 182.832 89.4607 183.4 89.4287 184.088H93.6047V183.44C93.6047 182.528 93.4607 181.816 93.1727 181.304C92.9007 180.792 92.4047 180.536 91.6847 180.536ZM103.712 191H100.76L97.5197 179H99.7037L102.296 189.296L104.816 179H106.928L103.712 191ZM111.014 185.72C111.03 186.504 111.086 187.144 111.182 187.64C111.294 188.12 111.438 188.496 111.614 188.768C111.79 189.04 111.998 189.224 112.238 189.32C112.478 189.4 112.75 189.44 113.054 189.44C113.726 189.44 114.334 189.4 114.878 189.32C115.438 189.224 115.902 189.136 116.27 189.056V190.784C115.886 190.896 115.398 190.984 114.806 191.048C114.23 191.128 113.726 191.168 113.294 191.168C112.606 191.168 111.99 191.096 111.446 190.952C110.918 190.808 110.47 190.52 110.102 190.088C109.734 189.656 109.454 189.04 109.262 188.24C109.07 187.424 108.974 186.344 108.974 185C108.974 183.896 109.062 182.952 109.238 182.168C109.43 181.384 109.71 180.744 110.078 180.248C110.446 179.752 110.902 179.392 111.446 179.168C111.99 178.944 112.622 178.832 113.342 178.832C114.718 178.832 115.702 179.288 116.294 180.2C116.902 181.096 117.206 182.336 117.206 183.92V185.72H111.014ZM113.294 180.536C112.91 180.536 112.582 180.592 112.31 180.704C112.038 180.816 111.814 181.008 111.638 181.28C111.462 181.552 111.326 181.92 111.23 182.384C111.134 182.832 111.07 183.4 111.038 184.088H115.214V183.44C115.214 182.528 115.07 181.816 114.782 181.304C114.51 180.792 114.014 180.536 113.294 180.536ZM124.041 190.88C123.865 190.912 123.657 190.952 123.417 191C123.193 191.048 122.921 191.072 122.601 191.072C122.361 191.072 122.121 191.032 121.881 190.952C121.641 190.872 121.425 190.728 121.233 190.52C121.041 190.312 120.881 190.032 120.753 189.68C120.625 189.312 120.561 188.856 120.561 188.312V174.2H122.601V188.192C122.601 188.608 122.649 188.904 122.745 189.08C122.857 189.24 123.073 189.32 123.393 189.32C123.521 189.32 123.641 189.304 123.753 189.272C123.881 189.24 123.977 189.216 124.041 189.2V190.88ZM135.672 184.76C135.672 186.024 135.576 187.072 135.384 187.904C135.192 188.72 134.904 189.376 134.52 189.872C134.136 190.352 133.656 190.688 133.08 190.88C132.52 191.072 131.864 191.168 131.112 191.168C130.376 191.168 129.72 191.072 129.144 190.88C128.584 190.688 128.112 190.352 127.728 189.872C127.344 189.376 127.048 188.72 126.84 187.904C126.648 187.072 126.552 186.024 126.552 184.76C126.552 182.712 126.92 181.216 127.656 180.272C128.392 179.312 129.544 178.832 131.112 178.832C132.68 178.832 133.832 179.312 134.568 180.272C135.304 181.216 135.672 182.712 135.672 184.76ZM133.584 185.12C133.584 184.272 133.544 183.552 133.464 182.96C133.384 182.368 133.248 181.896 133.056 181.544C132.88 181.176 132.632 180.912 132.312 180.752C131.992 180.592 131.592 180.512 131.112 180.512C130.632 180.512 130.232 180.592 129.912 180.752C129.592 180.912 129.336 181.176 129.144 181.544C128.968 181.896 128.84 182.368 128.76 182.96C128.68 183.552 128.64 184.272 128.64 185.12C128.64 186.688 128.824 187.808 129.192 188.48C129.56 189.152 130.2 189.488 131.112 189.488C132.024 189.488 132.664 189.152 133.032 188.48C133.4 187.808 133.584 186.688 133.584 185.12ZM139.147 195.08V179H140.827L141.019 180.032C141.787 179.232 142.731 178.832 143.851 178.832C145.259 178.832 146.243 179.288 146.803 180.2C147.363 181.096 147.643 182.44 147.643 184.232C147.643 185.544 147.555 186.648 147.379 187.544C147.203 188.424 146.915 189.136 146.515 189.68C146.115 190.208 145.587 190.592 144.931 190.832C144.291 191.056 143.491 191.168 142.531 191.168C142.259 191.168 142.011 191.16 141.787 191.144C141.563 191.128 141.363 191.104 141.187 191.072V195.08H139.147ZM143.467 180.56C143.131 180.56 142.819 180.624 142.531 180.752C142.259 180.88 142.019 181.048 141.811 181.256C141.619 181.464 141.467 181.688 141.355 181.928C141.243 182.152 141.187 182.376 141.187 182.6V189.344C141.363 189.376 141.579 189.4 141.835 189.416C142.091 189.432 142.403 189.44 142.771 189.44C143.347 189.44 143.811 189.336 144.163 189.128C144.531 188.92 144.811 188.608 145.003 188.192C145.211 187.776 145.355 187.264 145.435 186.656C145.515 186.032 145.555 185.304 145.555 184.472C145.555 183.704 145.515 183.072 145.435 182.576C145.371 182.08 145.251 181.68 145.075 181.376C144.915 181.072 144.699 180.864 144.427 180.752C144.171 180.624 143.851 180.56 143.467 180.56ZM151.123 191V179H152.803L152.971 180.056C153.707 179.24 154.611 178.832 155.683 178.832C156.435 178.832 157.035 178.976 157.483 179.264C157.931 179.536 158.283 179.896 158.539 180.344C159.307 179.336 160.315 178.832 161.563 178.832C162.795 178.832 163.659 179.176 164.155 179.864C164.667 180.536 164.923 181.608 164.923 183.08V191H162.883V182.84C162.883 182.072 162.771 181.504 162.547 181.136C162.339 180.752 161.891 180.56 161.203 180.56C160.883 180.56 160.587 180.624 160.315 180.752C160.059 180.88 159.835 181.048 159.643 181.256C159.451 181.464 159.299 181.688 159.187 181.928C159.091 182.152 159.043 182.376 159.043 182.6V191H157.003V182.84C157.003 182.072 156.891 181.504 156.667 181.136C156.459 180.752 156.011 180.56 155.323 180.56C155.003 180.56 154.707 180.624 154.435 180.752C154.179 180.88 153.955 181.048 153.763 181.256C153.571 181.464 153.419 181.688 153.307 181.928C153.211 182.152 153.163 182.376 153.163 182.6V191H151.123ZM170.334 185.72C170.35 186.504 170.406 187.144 170.502 187.64C170.614 188.12 170.758 188.496 170.934 188.768C171.11 189.04 171.318 189.224 171.558 189.32C171.798 189.4 172.07 189.44 172.374 189.44C173.046 189.44 173.654 189.4 174.198 189.32C174.758 189.224 175.222 189.136 175.59 189.056V190.784C175.206 190.896 174.718 190.984 174.126 191.048C173.55 191.128 173.046 191.168 172.614 191.168C171.926 191.168 171.31 191.096 170.766 190.952C170.238 190.808 169.79 190.52 169.422 190.088C169.054 189.656 168.774 189.04 168.582 188.24C168.39 187.424 168.294 186.344 168.294 185C168.294 183.896 168.382 182.952 168.558 182.168C168.75 181.384 169.03 180.744 169.398 180.248C169.766 179.752 170.222 179.392 170.766 179.168C171.31 178.944 171.942 178.832 172.662 178.832C174.038 178.832 175.022 179.288 175.614 180.2C176.222 181.096 176.526 182.336 176.526 183.92V185.72H170.334ZM172.614 180.536C172.23 180.536 171.902 180.592 171.63 180.704C171.358 180.816 171.134 181.008 170.958 181.28C170.782 181.552 170.646 181.92 170.55 182.384C170.454 182.832 170.39 183.4 170.358 184.088H174.534V183.44C174.534 182.528 174.39 181.816 174.102 181.304C173.83 180.792 173.334 180.536 172.614 180.536ZM179.881 191V179H181.561L181.729 180.08C182.513 179.248 183.497 178.832 184.681 178.832C185.369 178.832 185.945 178.92 186.409 179.096C186.873 179.256 187.241 179.512 187.513 179.864C187.801 180.2 188.001 180.64 188.113 181.184C188.241 181.712 188.305 182.344 188.305 183.08V191H186.265V182.84C186.265 182.088 186.137 181.52 185.881 181.136C185.641 180.752 185.121 180.56 184.321 180.56C183.985 180.56 183.665 180.624 183.361 180.752C183.073 180.88 182.817 181.048 182.593 181.256C182.385 181.464 182.217 181.688 182.089 181.928C181.977 182.152 181.921 182.376 181.921 182.6V191H179.881ZM194.302 180.8V188.12C194.302 188.232 194.318 188.368 194.35 188.528C194.382 188.672 194.438 188.816 194.518 188.96C194.614 189.088 194.734 189.2 194.878 189.296C195.038 189.392 195.246 189.44 195.502 189.44C195.87 189.44 196.182 189.416 196.438 189.368C196.694 189.304 196.91 189.248 197.086 189.2V190.88C196.926 190.928 196.646 190.984 196.246 191.048C195.862 191.128 195.454 191.168 195.022 191.168C194.542 191.168 194.126 191.088 193.774 190.928C193.422 190.768 193.134 190.544 192.91 190.256C192.686 189.968 192.518 189.632 192.406 189.248C192.31 188.864 192.262 188.448 192.262 188V180.8H190.702V179H192.262V176.12H194.302V179H197.086V180.8H194.302Z" fill="#1E0B00"/>
</svg>
