<svg width="306" height="322" viewBox="0 0 306 322" fill="none" xmlns="http://www.w3.org/2000/svg">
<path d="M12.24 212V181.76L45.84 136.16C50 130.88 53.28 126.32 55.68 122.48C58.08 118.48 59.84 114.8 60.96 111.44C62.24 108.08 62.96 104.72 63.12 101.36C63.44 98 63.6 94.16 63.6 89.84C63.6 82.48 62.16 77.2 59.28 74C56.56 70.64 51.36 68.96 43.68 68.96C39.52 68.96 34.88 69.52 29.76 70.64C24.64 71.6 20.24 72.48 16.56 73.28V45.92C17.2 45.76 18.56 45.52 20.64 45.2C22.88 44.72 25.44 44.24 28.32 43.76C31.36 43.28 34.48 42.88 37.68 42.56C41.04 42.08 44.16 41.84 47.04 41.84C56.64 41.84 64.56 42.96 70.8 45.2C77.04 47.28 81.92 50.48 85.44 54.8C89.12 58.96 91.68 64.16 93.12 70.4C94.56 76.64 95.28 83.84 95.28 92C95.28 97.6 95.12 102.48 94.8 106.64C94.48 110.64 93.68 114.56 92.4 118.4C91.28 122.08 89.52 125.92 87.12 129.92C84.88 133.76 81.84 138.32 78 143.6L48 184.64H96V212H12.24Z" fill="#1E0B00"/>
<path d="M116.83 212.08C116.363 213.433 115.85 214.67 115.29 215.79C114.777 216.957 114.17 217.937 113.47 218.73C112.77 219.523 111.907 220.13 110.88 220.55C109.9 221.017 108.71 221.25 107.31 221.25C106.563 221.25 105.817 221.203 105.07 221.11C104.37 221.017 103.81 220.923 103.39 220.83L103.81 215.72C104.323 215.813 104.883 215.883 105.49 215.93C106.097 215.977 106.75 216 107.45 216C108.15 216 108.733 215.72 109.2 215.16C109.713 214.647 110.157 213.877 110.53 212.85L112 209H110.6L102.76 174H109.06L114.73 202.91L124.04 174H130.27L116.83 212.08Z" fill="#1E0B00"/>
<path d="M137.762 202.31C137.762 204.481 137.108 206.047 135.801 207.009C134.494 207.971 132.742 208.452 130.547 208.452C130.054 208.452 129.597 208.44 129.178 208.415C128.783 208.39 128.327 208.353 127.809 208.304V209.636C127.809 210.475 127.883 211.165 128.031 211.708C128.204 212.226 128.413 212.621 128.66 212.892C128.931 213.163 129.227 213.348 129.548 213.447C129.869 213.546 130.202 213.595 130.547 213.595C131.756 213.595 132.755 213.521 133.544 213.373C134.333 213.225 135.012 213.089 135.579 212.966L135.32 215.63C135.024 215.704 134.679 215.79 134.284 215.889C133.889 215.963 133.482 216.025 133.063 216.074C132.644 216.123 132.224 216.16 131.805 216.185C131.41 216.234 131.04 216.259 130.695 216.259C129.807 216.259 128.993 216.173 128.253 216C127.538 215.827 126.909 215.494 126.366 215.001C125.848 214.508 125.441 213.817 125.145 212.929C124.849 212.016 124.701 210.832 124.701 209.377C124.701 207.157 124.861 205.282 125.182 203.753C125.527 202.199 126.021 200.941 126.662 199.979C127.303 199.017 128.08 198.326 128.993 197.907C129.93 197.463 130.979 197.241 132.138 197.241C133.174 197.241 134.05 197.389 134.765 197.685C135.48 197.956 136.06 198.339 136.504 198.832C136.948 199.301 137.269 199.843 137.466 200.46C137.663 201.052 137.762 201.669 137.762 202.31ZM132.101 199.868C131.558 199.868 131.053 199.967 130.584 200.164C130.14 200.361 129.745 200.694 129.4 201.163C129.055 201.607 128.759 202.211 128.512 202.976C128.29 203.716 128.117 204.641 127.994 205.751C128.364 205.8 128.697 205.837 128.993 205.862C129.314 205.862 129.647 205.862 129.992 205.862C131.719 205.862 132.952 205.603 133.692 205.085C134.432 204.567 134.802 203.691 134.802 202.458C134.802 202.113 134.765 201.78 134.691 201.459C134.617 201.138 134.481 200.867 134.284 200.645C134.087 200.398 133.815 200.213 133.47 200.09C133.125 199.942 132.668 199.868 132.101 199.868ZM141.612 207.564C141.785 205.739 142.081 204.172 142.5 202.865C142.919 201.558 143.487 200.497 144.202 199.683C144.917 198.844 145.793 198.228 146.829 197.833C147.865 197.438 149.086 197.241 150.492 197.241C150.837 197.241 151.22 197.266 151.639 197.315C152.083 197.364 152.515 197.426 152.934 197.5C153.378 197.574 153.797 197.66 154.192 197.759C154.587 197.858 154.932 197.956 155.228 198.055L154.044 210.968C154.044 211.017 154.032 211.153 154.007 211.375C153.982 211.572 153.97 211.844 153.97 212.189C153.97 213.126 154.451 213.595 155.413 213.595L155.228 216H154.525C153.736 216 153.057 215.815 152.49 215.445C151.947 215.075 151.565 214.495 151.343 213.706C150.85 214.446 150.196 215.063 149.382 215.556C148.568 216.025 147.52 216.259 146.237 216.259C144.51 216.259 143.289 215.692 142.574 214.557C141.859 213.422 141.501 211.807 141.501 209.71C141.501 209.019 141.538 208.304 141.612 207.564ZM147.051 213.595C147.692 213.595 148.247 213.484 148.716 213.262C149.185 213.015 149.579 212.707 149.9 212.337C150.245 211.967 150.504 211.548 150.677 211.079C150.85 210.61 150.961 210.129 151.01 209.636L151.861 200.053C151.614 200.004 151.331 199.967 151.01 199.942C150.689 199.917 150.307 199.905 149.863 199.905C146.434 199.905 144.72 203.26 144.72 209.969C144.72 211.202 144.893 212.115 145.238 212.707C145.583 213.299 146.188 213.595 147.051 213.595ZM169.845 200.682C169.524 200.608 169.154 200.546 168.735 200.497C168.34 200.423 167.97 200.386 167.625 200.386C167.008 200.386 166.478 200.559 166.034 200.904C165.59 201.225 165.22 201.644 164.924 202.162C164.628 202.68 164.393 203.26 164.221 203.901C164.073 204.542 163.974 205.171 163.925 205.788L163.037 216H159.892L161.483 197.5H164.073L164.147 199.794C164.64 199.054 165.207 198.45 165.849 197.981C166.515 197.488 167.292 197.241 168.18 197.241C168.624 197.241 168.981 197.266 169.253 197.315C169.549 197.364 169.832 197.414 170.104 197.463L169.845 200.682ZM182.758 209.895C182.758 212.09 182.228 213.706 181.167 214.742C180.106 215.753 178.392 216.259 176.024 216.259C174.963 216.259 174.063 216.197 173.323 216.074C172.608 215.951 172.04 215.827 171.621 215.704L171.88 213.003C172.102 213.052 172.386 213.114 172.731 213.188C173.076 213.237 173.446 213.299 173.841 213.373C174.26 213.422 174.692 213.472 175.136 213.521C175.605 213.57 176.061 213.595 176.505 213.595C177.097 213.595 177.578 213.484 177.948 213.262C178.343 213.04 178.651 212.769 178.873 212.448C179.095 212.103 179.243 211.745 179.317 211.375C179.416 210.98 179.465 210.61 179.465 210.265C179.465 209.599 179.305 209.106 178.984 208.785C178.688 208.44 178.145 208.168 177.356 207.971C175.654 207.576 174.433 206.984 173.693 206.195C172.953 205.381 172.583 204.419 172.583 203.309C172.583 201.089 173.163 199.523 174.322 198.61C175.506 197.697 177.134 197.241 179.206 197.241C180.119 197.241 180.92 197.315 181.611 197.463C182.326 197.586 182.857 197.697 183.202 197.796L182.98 200.497C182.684 200.423 182.388 200.349 182.092 200.275C181.796 200.201 181.488 200.139 181.167 200.09C180.846 200.041 180.489 200.004 180.094 199.979C179.724 199.93 179.292 199.905 178.799 199.905C178.207 199.905 177.714 199.991 177.319 200.164C176.949 200.337 176.653 200.571 176.431 200.867C176.209 201.138 176.049 201.459 175.95 201.829C175.876 202.174 175.839 202.532 175.839 202.902C175.839 203.494 176.012 203.963 176.357 204.308C176.702 204.629 177.257 204.863 178.022 205.011C179.749 205.356 180.97 205.948 181.685 206.787C182.4 207.601 182.758 208.637 182.758 209.895Z" fill="#1E0B00"/>
<path d="M20.652 237.928V250.27H33.588V257.398H20.652V277H11.61V230.8H35.238V237.928H20.652ZM49.9978 244V264.988C49.9978 266.088 50.0858 266.968 50.2618 267.628C50.4378 268.288 50.6798 268.794 50.9878 269.146C51.2958 269.498 51.6698 269.74 52.1098 269.872C52.5938 269.96 53.1218 270.004 53.6938 270.004C55.3658 270.004 56.5538 269.476 57.2578 268.42C58.0058 267.364 58.3798 266.242 58.3798 265.054V244H67.1578V277H60.0298L59.4358 274.426C58.4238 275.394 57.2798 276.164 56.0038 276.736C54.7278 277.308 53.2538 277.594 51.5818 277.594C49.5138 277.594 47.7978 277.33 46.4338 276.802C45.1138 276.274 44.0578 275.482 43.2658 274.426C42.5178 273.326 41.9898 271.984 41.6818 270.4C41.3738 268.772 41.2198 266.88 41.2198 264.724V244H49.9978ZM88.9099 276.802C88.4259 276.89 87.6119 277 86.4679 277.132C85.3679 277.264 84.1799 277.33 82.9039 277.33C80.1759 277.33 78.2839 276.516 77.2279 274.888C76.2159 273.216 75.7099 270.664 75.7099 267.232V230.8H84.4879V266.902C84.4879 267.958 84.6199 268.706 84.8839 269.146C85.1479 269.542 85.6979 269.74 86.5339 269.74C87.0179 269.74 87.4799 269.718 87.9199 269.674C88.4039 269.586 88.7339 269.52 88.9099 269.476V276.802ZM108.053 276.802C107.569 276.89 106.755 277 105.611 277.132C104.511 277.264 103.323 277.33 102.047 277.33C99.3185 277.33 97.4265 276.516 96.3705 274.888C95.3585 273.216 94.8525 270.664 94.8525 267.232V230.8H103.631V266.902C103.631 267.958 103.763 268.706 104.027 269.146C104.291 269.542 104.841 269.74 105.677 269.74C106.161 269.74 106.623 269.718 107.062 269.674C107.547 269.586 107.877 269.52 108.053 269.476V276.802ZM136.369 263.272C136.369 266.352 135.973 268.838 135.181 270.73C134.433 272.578 133.377 274.008 132.013 275.02C130.693 276.032 129.087 276.692 127.195 277C125.347 277.308 123.323 277.462 121.123 277.462C120.419 277.462 119.627 277.44 118.747 277.396C117.911 277.352 117.053 277.286 116.173 277.198C115.337 277.11 114.523 277 113.731 276.868C112.983 276.736 112.323 276.604 111.751 276.472V268.618C112.279 268.75 112.895 268.882 113.599 269.014C114.347 269.146 115.117 269.256 115.909 269.344C116.701 269.432 117.493 269.52 118.285 269.608C119.077 269.652 119.803 269.674 120.463 269.674C122.531 269.674 124.159 269.256 125.347 268.42C126.579 267.54 127.195 266.044 127.195 263.932C127.195 262.744 127.063 261.732 126.799 260.896C126.579 260.06 126.227 259.378 125.743 258.85C125.259 258.322 124.665 257.904 123.961 257.596C123.257 257.288 122.465 257.046 121.585 256.87C117.889 256.122 115.249 254.692 113.665 252.58C112.125 250.468 111.355 247.476 111.355 243.604C111.355 241.14 111.685 239.072 112.345 237.4C113.049 235.728 114.061 234.364 115.381 233.308C116.745 232.252 118.395 231.504 120.331 231.064C122.311 230.58 124.555 230.338 127.063 230.338C127.679 230.338 128.361 230.36 129.109 230.404C129.857 230.448 130.605 230.536 131.353 230.668C132.101 230.756 132.805 230.866 133.465 230.998C134.169 231.086 134.763 231.196 135.247 231.328V239.116C134.675 238.984 133.993 238.874 133.201 238.786C132.453 238.654 131.661 238.544 130.825 238.456C130.033 238.324 129.241 238.236 128.449 238.192C127.657 238.148 126.975 238.126 126.403 238.126C124.511 238.126 123.059 238.5 122.047 239.248C121.035 239.996 120.529 241.206 120.529 242.878C120.529 243.934 120.595 244.814 120.727 245.518C120.903 246.178 121.189 246.728 121.585 247.168C121.981 247.564 122.509 247.894 123.169 248.158C123.829 248.422 124.687 248.664 125.743 248.884C127.327 249.192 128.757 249.676 130.033 250.336C131.353 250.952 132.475 251.81 133.399 252.91C134.367 254.01 135.093 255.396 135.577 257.068C136.105 258.74 136.369 260.808 136.369 263.272ZM152.066 251.59V267.1C152.066 268.156 152.264 268.926 152.66 269.41C153.1 269.85 153.826 270.07 154.838 270.07C155.542 270.07 156.29 270.004 157.082 269.872C157.874 269.74 158.512 269.608 158.996 269.476V276.802C158.776 276.846 158.402 276.912 157.874 277C157.346 277.132 156.752 277.22 156.092 277.264C155.432 277.352 154.75 277.418 154.046 277.462C153.342 277.55 152.682 277.594 152.066 277.594C150.218 277.594 148.722 277.308 147.578 276.736C146.434 276.12 145.532 275.328 144.872 274.36C144.256 273.348 143.838 272.204 143.618 270.928C143.398 269.608 143.288 268.222 143.288 266.77V251.59H138.998V244H143.288V236.08H152.066V244H158.666V251.59H152.066ZM188.079 277C187.199 277 186.187 276.824 185.043 276.472C183.899 276.12 183.019 275.394 182.403 274.294C181.567 275.306 180.467 276.12 179.103 276.736C177.739 277.308 175.935 277.594 173.691 277.594C172.239 277.594 170.897 277.418 169.665 277.066C168.433 276.714 167.355 276.142 166.431 275.35C165.551 274.514 164.847 273.436 164.319 272.116C163.835 270.752 163.593 269.058 163.593 267.034C163.593 263.03 164.781 260.192 167.157 258.52C169.577 256.848 173.053 256.012 177.585 256.012H180.555V254.626C180.555 253.35 180.225 252.382 179.565 251.722C178.949 251.018 177.805 250.666 176.133 250.666C174.241 250.666 172.481 250.82 170.853 251.128C169.269 251.392 167.641 251.766 165.969 252.25V244.726C166.585 244.55 167.311 244.396 168.147 244.264C168.983 244.088 169.841 243.934 170.721 243.802C171.645 243.67 172.569 243.582 173.493 243.538C174.461 243.45 175.341 243.406 176.133 243.406C178.949 243.406 181.215 243.648 182.931 244.132C184.647 244.572 185.967 245.276 186.891 246.244C187.859 247.212 188.497 248.444 188.805 249.94C189.157 251.436 189.333 253.196 189.333 255.22V268.288C189.333 268.948 189.509 269.476 189.861 269.872C190.213 270.224 190.895 270.4 191.907 270.4V277H188.079ZM176.199 270.202C177.123 270.202 177.849 270.048 178.377 269.74C178.949 269.388 179.389 268.97 179.697 268.486C180.049 268.002 180.269 267.496 180.357 266.968C180.489 266.396 180.555 265.89 180.555 265.45V262.48H177.255C175.847 262.48 174.703 262.788 173.823 263.404C172.943 264.02 172.503 265.076 172.503 266.572C172.503 267.584 172.767 268.442 173.295 269.146C173.867 269.85 174.835 270.202 176.199 270.202ZM218.425 276.604C217.369 276.912 216.137 277.154 214.729 277.33C213.321 277.506 212.023 277.594 210.835 277.594C208.679 277.594 206.765 277.374 205.093 276.934C203.465 276.494 202.079 275.636 200.935 274.36C199.835 273.084 198.977 271.302 198.361 269.014C197.789 266.682 197.503 263.624 197.503 259.84C197.503 253.944 198.647 249.742 200.935 247.234C203.267 244.682 206.589 243.406 210.901 243.406C212.001 243.406 213.277 243.516 214.729 243.736C216.225 243.912 217.457 244.11 218.425 244.33V252.052C217.809 251.92 217.237 251.81 216.709 251.722C216.225 251.59 215.719 251.48 215.191 251.392C214.663 251.304 214.091 251.238 213.475 251.194C212.859 251.15 212.133 251.128 211.297 251.128C210.549 251.128 209.867 251.26 209.251 251.524C208.679 251.788 208.195 252.294 207.799 253.042C207.403 253.746 207.095 254.758 206.875 256.078C206.655 257.354 206.545 259.048 206.545 261.16C206.545 264.46 206.919 266.748 207.667 268.024C208.459 269.256 209.625 269.872 211.165 269.872C212.837 269.872 214.223 269.762 215.323 269.542C216.423 269.322 217.457 269.124 218.425 268.948V276.604ZM242.662 277L235.534 263.338L234.148 265.12V277H225.37V230.8H234.148V253.9L242.068 244H252.1L240.946 257.2L252.76 277H242.662ZM19.79 303.645C19.79 301.708 19.72 300.11 19.58 298.85C19.44 297.59 19.2067 296.587 18.88 295.84C18.5533 295.093 18.1217 294.568 17.585 294.265C17.0483 293.962 16.3833 293.81 15.59 293.81C14.7967 293.81 14.1317 293.962 13.595 294.265C13.0583 294.568 12.6267 295.093 12.3 295.84C11.9733 296.587 11.74 297.59 11.6 298.85C11.46 300.11 11.39 301.708 11.39 303.645C11.39 305.535 11.46 307.122 11.6 308.405C11.74 309.665 11.9733 310.692 12.3 311.485C12.6267 312.278 13.0583 312.85 13.595 313.2C14.1317 313.527 14.7967 313.69 15.59 313.69C16.3833 313.69 17.0483 313.527 17.585 313.2C18.1217 312.85 18.5533 312.278 18.88 311.485C19.2067 310.692 19.44 309.665 19.58 308.405C19.72 307.122 19.79 305.535 19.79 303.645ZM22.905 303.47C22.905 305.617 22.7883 307.495 22.555 309.105C22.345 310.692 21.96 312.022 21.4 313.095C20.8633 314.145 20.1167 314.938 19.16 315.475C18.2267 315.988 17.0367 316.245 15.59 316.245C14.1433 316.245 12.9417 315.988 11.985 315.475C11.0517 314.938 10.305 314.145 9.745 313.095C9.20833 312.022 8.82333 310.692 8.59 309.105C8.38 307.495 8.275 305.617 8.275 303.47C8.275 301.417 8.38 299.632 8.59 298.115C8.82333 296.575 9.20833 295.303 9.745 294.3C10.305 293.273 11.0517 292.515 11.985 292.025C12.9417 291.512 14.1433 291.255 15.59 291.255C17.0367 291.255 18.2267 291.512 19.16 292.025C20.1167 292.515 20.8633 293.273 21.4 294.3C21.96 295.303 22.345 296.575 22.555 298.115C22.7883 299.632 22.905 301.417 22.905 303.47ZM31.4748 301.055V316H28.4998V301.055H26.2248V298.5H28.4998V295.77C28.4998 294.253 28.9081 293.122 29.7248 292.375C30.5415 291.628 31.6148 291.255 32.9448 291.255C33.6915 291.255 34.3331 291.313 34.8698 291.43C35.4298 291.523 35.8848 291.605 36.2348 291.675V294.16C35.8615 294.067 35.4531 293.985 35.0098 293.915C34.5665 293.822 34.0298 293.775 33.3998 293.775C32.7698 293.775 32.2915 293.938 31.9648 294.265C31.6381 294.592 31.4748 295.012 31.4748 295.525V298.5H35.7098V301.055H31.4748ZM62.8107 316H58.0507L55.7057 305.36L53.1507 316H48.6007L47.4107 291.5H50.1057L51.1557 314.075L54.3057 301.825H57.1757L60.3607 314.075L61.4457 291.5H64.0007L62.8107 316ZM70.6543 308.3C70.6776 309.443 70.7593 310.377 70.8993 311.1C71.0626 311.8 71.2726 312.348 71.5293 312.745C71.786 313.142 72.0893 313.41 72.4393 313.55C72.7893 313.667 73.186 313.725 73.6293 313.725C74.6093 313.725 75.496 313.667 76.2893 313.55C77.106 313.41 77.7826 313.282 78.3193 313.165V315.685C77.7593 315.848 77.0476 315.977 76.1843 316.07C75.3443 316.187 74.6093 316.245 73.9793 316.245C72.976 316.245 72.0776 316.14 71.2843 315.93C70.5143 315.72 69.861 315.3 69.3243 314.67C68.7876 314.04 68.3793 313.142 68.0993 311.975C67.8193 310.785 67.6793 309.21 67.6793 307.25C67.6793 305.64 67.8076 304.263 68.0643 303.12C68.3443 301.977 68.7526 301.043 69.2893 300.32C69.826 299.597 70.491 299.072 71.2843 298.745C72.0776 298.418 72.9993 298.255 74.0493 298.255C76.056 298.255 77.491 298.92 78.3543 300.25C79.241 301.557 79.6843 303.365 79.6843 305.675V308.3H70.6543ZM73.9793 300.74C73.4193 300.74 72.941 300.822 72.5443 300.985C72.1476 301.148 71.821 301.428 71.5643 301.825C71.3076 302.222 71.1093 302.758 70.9693 303.435C70.8293 304.088 70.736 304.917 70.6893 305.92H76.7793V304.975C76.7793 303.645 76.5693 302.607 76.1493 301.86C75.7526 301.113 75.0293 300.74 73.9793 300.74ZM96.9664 306.13C96.9664 308.043 96.838 309.653 96.5814 310.96C96.3247 312.243 95.9047 313.282 95.3214 314.075C94.738 314.845 93.968 315.405 93.0114 315.755C92.078 316.082 90.9114 316.245 89.5114 316.245C88.8814 316.245 88.333 316.233 87.8664 316.21C87.3997 316.187 86.968 316.152 86.5714 316.105C86.198 316.058 85.848 316.012 85.5214 315.965C85.218 315.918 84.903 315.872 84.5764 315.825V291.5H87.5514V299.795C88.648 298.768 89.943 298.255 91.4364 298.255C93.4897 298.255 94.9247 298.92 95.7414 300.25C96.558 301.557 96.9664 303.517 96.9664 306.13ZM90.8764 300.775C90.3864 300.775 89.9314 300.868 89.5114 301.055C89.1147 301.242 88.7647 301.487 88.4614 301.79C88.1814 302.093 87.9597 302.42 87.7964 302.77C87.633 303.097 87.5514 303.423 87.5514 303.75V313.585C87.808 313.632 88.123 313.667 88.4964 313.69C88.8697 313.713 89.3247 313.725 89.8614 313.725C90.7014 313.725 91.378 313.573 91.8914 313.27C92.428 312.967 92.8364 312.512 93.1164 311.905C93.4197 311.298 93.6297 310.552 93.7464 309.665C93.863 308.755 93.9214 307.693 93.9214 306.48C93.9214 305.36 93.863 304.438 93.7464 303.715C93.653 302.992 93.478 302.408 93.2214 301.965C92.988 301.522 92.673 301.218 92.2764 301.055C91.903 300.868 91.4364 300.775 90.8764 300.775ZM121.354 303.61C121.354 301.51 121.261 299.818 121.074 298.535C120.911 297.252 120.666 296.26 120.339 295.56C120.012 294.86 119.627 294.393 119.184 294.16C118.764 293.927 118.286 293.81 117.749 293.81C117.422 293.81 117.061 293.822 116.664 293.845C116.291 293.845 115.929 293.857 115.579 293.88C115.159 293.903 114.751 293.927 114.354 293.95V313.55C114.704 313.573 115.077 313.597 115.474 313.62C115.801 313.643 116.162 313.667 116.559 313.69C116.956 313.69 117.341 313.69 117.714 313.69C118.251 313.69 118.741 313.527 119.184 313.2C119.651 312.873 120.036 312.325 120.339 311.555C120.666 310.762 120.911 309.723 121.074 308.44C121.261 307.133 121.354 305.523 121.354 303.61ZM124.469 303.365C124.469 305.978 124.317 308.125 124.014 309.805C123.734 311.462 123.291 312.768 122.684 313.725C122.101 314.682 121.366 315.347 120.479 315.72C119.592 316.07 118.566 316.245 117.399 316.245C116.722 316.245 116.022 316.233 115.299 316.21C114.599 316.21 113.946 316.187 113.339 316.14C112.639 316.093 111.962 316.047 111.309 316V291.5C111.939 291.453 112.581 291.407 113.234 291.36C113.794 291.313 114.401 291.29 115.054 291.29C115.731 291.267 116.372 291.255 116.979 291.255C118.216 291.255 119.301 291.407 120.234 291.71C121.167 291.99 121.949 292.573 122.579 293.46C123.209 294.323 123.676 295.548 123.979 297.135C124.306 298.698 124.469 300.775 124.469 303.365ZM132.007 308.3C132.03 309.443 132.112 310.377 132.252 311.1C132.415 311.8 132.625 312.348 132.882 312.745C133.139 313.142 133.442 313.41 133.792 313.55C134.142 313.667 134.539 313.725 134.982 313.725C135.962 313.725 136.849 313.667 137.642 313.55C138.459 313.41 139.135 313.282 139.672 313.165V315.685C139.112 315.848 138.4 315.977 137.537 316.07C136.697 316.187 135.962 316.245 135.332 316.245C134.329 316.245 133.43 316.14 132.637 315.93C131.867 315.72 131.214 315.3 130.677 314.67C130.14 314.04 129.732 313.142 129.452 311.975C129.172 310.785 129.032 309.21 129.032 307.25C129.032 305.64 129.16 304.263 129.417 303.12C129.697 301.977 130.105 301.043 130.642 300.32C131.179 299.597 131.844 299.072 132.637 298.745C133.43 298.418 134.352 298.255 135.402 298.255C137.409 298.255 138.844 298.92 139.707 300.25C140.594 301.557 141.037 303.365 141.037 305.675V308.3H132.007ZM135.332 300.74C134.772 300.74 134.294 300.822 133.897 300.985C133.5 301.148 133.174 301.428 132.917 301.825C132.66 302.222 132.462 302.758 132.322 303.435C132.182 304.088 132.089 304.917 132.042 305.92H138.132V304.975C138.132 303.645 137.922 302.607 137.502 301.86C137.105 301.113 136.382 300.74 135.332 300.74ZM152.871 316H148.566L143.841 298.5H147.026L150.806 313.515L154.481 298.5H157.561L152.871 316ZM163.521 308.3C163.544 309.443 163.626 310.377 163.766 311.1C163.929 311.8 164.139 312.348 164.396 312.745C164.652 313.142 164.956 313.41 165.306 313.55C165.656 313.667 166.052 313.725 166.496 313.725C167.476 313.725 168.362 313.667 169.156 313.55C169.972 313.41 170.649 313.282 171.186 313.165V315.685C170.626 315.848 169.914 315.977 169.051 316.07C168.211 316.187 167.476 316.245 166.846 316.245C165.842 316.245 164.944 316.14 164.151 315.93C163.381 315.72 162.727 315.3 162.191 314.67C161.654 314.04 161.246 313.142 160.966 311.975C160.686 310.785 160.546 309.21 160.546 307.25C160.546 305.64 160.674 304.263 160.931 303.12C161.211 301.977 161.619 301.043 162.156 300.32C162.692 299.597 163.357 299.072 164.151 298.745C164.944 298.418 165.866 298.255 166.916 298.255C168.922 298.255 170.357 298.92 171.221 300.25C172.107 301.557 172.551 303.365 172.551 305.675V308.3H163.521ZM166.846 300.74C166.286 300.74 165.807 300.822 165.411 300.985C165.014 301.148 164.687 301.428 164.431 301.825C164.174 302.222 163.976 302.758 163.836 303.435C163.696 304.088 163.602 304.917 163.556 305.92H169.646V304.975C169.646 303.645 169.436 302.607 169.016 301.86C168.619 301.113 167.896 300.74 166.846 300.74ZM182.518 315.825C182.261 315.872 181.958 315.93 181.608 316C181.281 316.07 180.884 316.105 180.418 316.105C180.068 316.105 179.718 316.047 179.368 315.93C179.018 315.813 178.703 315.603 178.423 315.3C178.143 314.997 177.909 314.588 177.723 314.075C177.536 313.538 177.443 312.873 177.443 312.08V291.5H180.418V311.905C180.418 312.512 180.488 312.943 180.628 313.2C180.791 313.433 181.106 313.55 181.573 313.55C181.759 313.55 181.934 313.527 182.098 313.48C182.284 313.433 182.424 313.398 182.518 313.375V315.825ZM199.48 306.9C199.48 308.743 199.34 310.272 199.06 311.485C198.78 312.675 198.36 313.632 197.8 314.355C197.24 315.055 196.54 315.545 195.7 315.825C194.884 316.105 193.927 316.245 192.83 316.245C191.757 316.245 190.8 316.105 189.96 315.825C189.144 315.545 188.455 315.055 187.895 314.355C187.335 313.632 186.904 312.675 186.6 311.485C186.32 310.272 186.18 308.743 186.18 306.9C186.18 303.913 186.717 301.732 187.79 300.355C188.864 298.955 190.544 298.255 192.83 298.255C195.117 298.255 196.797 298.955 197.87 300.355C198.944 301.732 199.48 303.913 199.48 306.9ZM196.435 307.425C196.435 306.188 196.377 305.138 196.26 304.275C196.144 303.412 195.945 302.723 195.665 302.21C195.409 301.673 195.047 301.288 194.58 301.055C194.114 300.822 193.53 300.705 192.83 300.705C192.13 300.705 191.547 300.822 191.08 301.055C190.614 301.288 190.24 301.673 189.96 302.21C189.704 302.723 189.517 303.412 189.4 304.275C189.284 305.138 189.225 306.188 189.225 307.425C189.225 309.712 189.494 311.345 190.03 312.325C190.567 313.305 191.5 313.795 192.83 313.795C194.16 313.795 195.094 313.305 195.63 312.325C196.167 311.345 196.435 309.712 196.435 307.425ZM204.547 321.95V298.5H206.997L207.277 300.005C208.397 298.838 209.774 298.255 211.407 298.255C213.46 298.255 214.895 298.92 215.712 300.25C216.529 301.557 216.937 303.517 216.937 306.13C216.937 308.043 216.809 309.653 216.552 310.96C216.295 312.243 215.875 313.282 215.292 314.075C214.709 314.845 213.939 315.405 212.982 315.755C212.049 316.082 210.882 316.245 209.482 316.245C209.085 316.245 208.724 316.233 208.397 316.21C208.07 316.187 207.779 316.152 207.522 316.105V321.95H204.547ZM210.847 300.775C210.357 300.775 209.902 300.868 209.482 301.055C209.085 301.242 208.735 301.487 208.432 301.79C208.152 302.093 207.93 302.42 207.767 302.77C207.604 303.097 207.522 303.423 207.522 303.75V313.585C207.779 313.632 208.094 313.667 208.467 313.69C208.84 313.713 209.295 313.725 209.832 313.725C210.672 313.725 211.349 313.573 211.862 313.27C212.399 312.967 212.807 312.512 213.087 311.905C213.39 311.298 213.6 310.552 213.717 309.665C213.834 308.755 213.892 307.693 213.892 306.48C213.892 305.36 213.834 304.438 213.717 303.715C213.624 302.992 213.449 302.408 213.192 301.965C212.959 301.522 212.644 301.218 212.247 301.055C211.874 300.868 211.407 300.775 210.847 300.775ZM222.013 316V298.5H224.463L224.708 300.04C225.781 298.85 227.1 298.255 228.663 298.255C229.76 298.255 230.635 298.465 231.288 298.885C231.941 299.282 232.455 299.807 232.828 300.46C233.948 298.99 235.418 298.255 237.238 298.255C239.035 298.255 240.295 298.757 241.018 299.76C241.765 300.74 242.138 302.303 242.138 304.45V316H239.163V304.1C239.163 302.98 239 302.152 238.673 301.615C238.37 301.055 237.716 300.775 236.713 300.775C236.246 300.775 235.815 300.868 235.418 301.055C235.045 301.242 234.718 301.487 234.438 301.79C234.158 302.093 233.936 302.42 233.773 302.77C233.633 303.097 233.563 303.423 233.563 303.75V316H230.588V304.1C230.588 302.98 230.425 302.152 230.098 301.615C229.795 301.055 229.141 300.775 228.138 300.775C227.671 300.775 227.24 300.868 226.843 301.055C226.47 301.242 226.143 301.487 225.863 301.79C225.583 302.093 225.361 302.42 225.198 302.77C225.058 303.097 224.988 303.423 224.988 303.75V316H222.013ZM250.029 308.3C250.053 309.443 250.134 310.377 250.274 311.1C250.438 311.8 250.648 312.348 250.904 312.745C251.161 313.142 251.464 313.41 251.814 313.55C252.164 313.667 252.561 313.725 253.004 313.725C253.984 313.725 254.871 313.667 255.664 313.55C256.481 313.41 257.158 313.282 257.694 313.165V315.685C257.134 315.848 256.423 315.977 255.559 316.07C254.719 316.187 253.984 316.245 253.354 316.245C252.351 316.245 251.453 316.14 250.659 315.93C249.889 315.72 249.236 315.3 248.699 314.67C248.163 314.04 247.754 313.142 247.474 311.975C247.194 310.785 247.054 309.21 247.054 307.25C247.054 305.64 247.183 304.263 247.439 303.12C247.719 301.977 248.128 301.043 248.664 300.32C249.201 299.597 249.866 299.072 250.659 298.745C251.453 298.418 252.374 298.255 253.424 298.255C255.431 298.255 256.866 298.92 257.729 300.25C258.616 301.557 259.059 303.365 259.059 305.675V308.3H250.029ZM253.354 300.74C252.794 300.74 252.316 300.822 251.919 300.985C251.523 301.148 251.196 301.428 250.939 301.825C250.683 302.222 250.484 302.758 250.344 303.435C250.204 304.088 250.111 304.917 250.064 305.92H256.154V304.975C256.154 303.645 255.944 302.607 255.524 301.86C255.128 301.113 254.404 300.74 253.354 300.74ZM263.951 316V298.5H266.401L266.646 300.075C267.79 298.862 269.225 298.255 270.951 298.255C271.955 298.255 272.795 298.383 273.471 298.64C274.148 298.873 274.685 299.247 275.081 299.76C275.501 300.25 275.793 300.892 275.956 301.685C276.143 302.455 276.236 303.377 276.236 304.45V316H273.261V304.1C273.261 303.003 273.075 302.175 272.701 301.615C272.351 301.055 271.593 300.775 270.426 300.775C269.936 300.775 269.47 300.868 269.026 301.055C268.606 301.242 268.233 301.487 267.906 301.79C267.603 302.093 267.358 302.42 267.171 302.77C267.008 303.097 266.926 303.423 266.926 303.75V316H263.951ZM284.981 301.125V311.8C284.981 311.963 285.005 312.162 285.051 312.395C285.098 312.605 285.18 312.815 285.296 313.025C285.436 313.212 285.611 313.375 285.821 313.515C286.055 313.655 286.358 313.725 286.731 313.725C287.268 313.725 287.723 313.69 288.096 313.62C288.47 313.527 288.785 313.445 289.041 313.375V315.825C288.808 315.895 288.4 315.977 287.816 316.07C287.256 316.187 286.661 316.245 286.031 316.245C285.331 316.245 284.725 316.128 284.211 315.895C283.698 315.662 283.278 315.335 282.951 314.915C282.625 314.495 282.38 314.005 282.216 313.445C282.076 312.885 282.006 312.278 282.006 311.625V301.125H279.731V298.5H282.006V294.3H284.981V298.5H289.041V301.125H284.981Z" fill="#1E0B00"/>
</svg>
