<svg width="29" height="29" viewBox="0 0 29 29" fill="none" xmlns="http://www.w3.org/2000/svg">
<path d="M14.5 1.1428e-05C6.49117 1.1428e-05 0 6.49238 0 14.5C0 22.5088 6.49117 29 14.5 29C22.5076 29 29 22.5088 29 14.5C29.0006 13.1333 28.8082 11.7734 28.4285 10.4605C28.3573 10.2877 28.2221 10.149 28.0511 10.0734C27.8801 9.99785 27.6865 9.99127 27.5107 10.055C27.335 10.1188 27.1907 10.248 27.1079 10.4157C27.0252 10.5833 27.0104 10.7765 27.0667 10.9548H27.0642C27.3845 12.0942 27.55 13.2844 27.55 14.5C27.5547 16.2145 27.2193 17.9128 26.5633 19.4968C25.9073 21.0808 24.9436 22.519 23.728 23.728C22.519 24.9436 21.0809 25.9074 19.4969 26.5634C17.9129 27.2194 16.2145 27.5548 14.5 27.55C12.7855 27.5547 11.0872 27.2193 9.50317 26.5633C7.91918 25.9073 6.48103 24.9436 5.27196 23.728C4.0563 22.5191 3.09255 21.0809 2.4365 19.4969C1.78046 17.9129 1.44515 16.2145 1.45 14.5C1.44529 12.7855 1.78065 11.0872 2.43669 9.50318C3.09273 7.91919 4.05641 6.48104 5.27196 5.27197C6.48095 4.05631 7.91908 3.09256 9.50309 2.43651C11.0871 1.78047 12.7855 1.44516 14.5 1.45001C17.6127 1.45001 20.5574 2.53268 22.9076 4.51918C22.759 4.89619 22.7442 5.31273 22.8657 5.69933C22.9871 6.08593 23.2374 6.41921 23.5748 6.64359C23.9123 6.86796 24.3164 6.96987 24.7199 6.93231C25.1234 6.89475 25.5018 6.71999 25.792 6.43719C26.0822 6.15438 26.2667 5.78062 26.3146 5.37825C26.3626 4.97588 26.2712 4.56923 26.0556 4.22611C25.84 3.883 25.5133 3.62417 25.13 3.49279C24.7467 3.36141 24.3299 3.36543 23.9492 3.50418C21.3223 1.23948 17.9683 -0.00434942 14.5 1.1428e-05ZM12.76 7.10501L7.685 20.2783H10.8629L11.693 18.0453H16.4889L15.6201 15.5778H12.4627L14.5169 9.90955L18.1709 20.277H21.35L16.2762 7.10501H12.76Z" fill="#1E0B00"/>
</svg>
