<svg width="82" height="23" viewBox="0 0 82 23" fill="none" xmlns="http://www.w3.org/2000/svg">
<path d="M0.533641 17.9348V9.0967H11.9278V8.57973H0.533641V0.516816H12.6482V0H0V18.4517H12.7548V17.9348H0.533641ZM23.0284 5.16847L18.3054 11.1899L13.6889 5.16862H12.9951L17.9851 11.5776L12.5146 18.4515H13.1551L18.3051 11.9649L23.4818 18.4515H24.1488L18.652 11.5773L23.6685 5.16831L23.0284 5.16847ZM25.7501 23V14.7305H25.8034C26.1237 15.9364 26.7552 16.9055 27.6981 17.6378C28.6409 18.3699 29.8416 18.7361 31.3003 18.7361C32.2431 18.7361 33.0793 18.5509 33.8087 18.1805C34.538 17.8101 35.1473 17.3062 35.6365 16.6687C36.1256 16.0312 36.4993 15.2904 36.7573 14.4462C37.0152 13.6021 37.1442 12.7147 37.1442 11.7845C37.1442 10.7852 37.0107 9.86339 36.7438 9.0193C36.477 8.17505 36.0901 7.4428 35.5832 6.82268C35.0761 6.20241 34.4624 5.71987 33.7419 5.37553C33.0215 5.03089 32.2076 4.85856 31.3003 4.85856C30.6065 4.85856 29.9617 4.95768 29.3658 5.15575C28.7698 5.35397 28.2407 5.63379 27.7781 5.99565C27.3129 6.36029 26.9079 6.79166 26.5773 7.27482C26.2394 7.76588 25.9813 8.30426 25.8034 8.8901H25.7501V5.16847H25.2164V23H25.7501ZM31.3003 18.2449C29.6283 18.2449 28.285 17.6893 27.2711 16.5781C26.2571 15.4669 25.7501 13.8689 25.7501 11.7842C25.7501 10.9228 25.8747 10.1044 26.1237 9.3292C26.3728 8.55398 26.733 7.87337 27.2043 7.28769C27.6758 6.70185 28.2584 6.23669 28.9521 5.89219C29.6459 5.54755 30.4287 5.37522 31.3003 5.37522C32.1898 5.37522 32.9682 5.54755 33.6352 5.89219C34.3023 6.23669 34.8538 6.70619 35.2896 7.30056C35.7254 7.89493 36.0545 8.57554 36.277 9.34208C36.4993 10.1088 36.6104 10.9228 36.6104 11.7842C36.6104 12.5596 36.5083 13.3306 36.3036 14.0972C36.0991 14.8639 35.7832 15.553 35.3563 16.1648C34.9294 16.7762 34.3825 17.2758 33.7153 17.6636C33.0481 18.0512 32.2431 18.2449 31.3003 18.2449ZM40.0794 18.4517V10.9315C40.0794 10.2079 40.1861 9.50137 40.3997 8.81239C40.6131 8.12325 40.9422 7.51585 41.3869 6.9905C41.8317 6.465 42.3964 6.05149 43.0814 5.74996C43.7662 5.44843 44.5801 5.32357 45.523 5.37522V4.85841C44.7046 4.84135 43.9887 4.92728 43.375 5.11682C42.7611 5.30636 42.2319 5.56476 41.7872 5.89219C41.3424 6.21947 40.9867 6.60274 40.7199 7.04216C40.4533 7.48088 40.2554 7.95551 40.1328 8.45052H40.0794V5.16847H39.5458V18.4518L40.0794 18.4517ZM46.19 11.9134H57.6641C57.6998 11.0003 57.6064 10.1218 57.384 9.27755C57.1617 8.43331 56.8058 7.68383 56.3167 7.02928C55.8274 6.37458 55.1959 5.84907 54.4221 5.45278C53.6482 5.05648 52.7276 4.85841 51.6603 4.85841C50.8953 4.85841 50.1481 5.01351 49.4188 5.32373C48.6894 5.63379 48.049 6.08592 47.4975 6.68029C46.9461 7.27466 46.5014 8.00258 46.1634 8.86419C45.8255 9.7255 45.6564 10.7075 45.6564 11.8101C45.6564 12.7921 45.772 13.7096 46.0033 14.5624C46.2345 15.4151 46.5903 16.1561 47.0706 16.7849C47.551 17.4137 48.1692 17.9004 48.9252 18.2449C49.6811 18.5895 50.5929 18.7532 51.6603 18.736C53.2257 18.736 54.5422 18.3094 55.6095 17.4568C56.6769 16.6039 57.3084 15.4023 57.5041 13.8517H56.9705C56.7392 15.3162 56.1476 16.4145 55.1959 17.1466C54.2441 17.8788 53.0479 18.2449 51.6068 18.2449C50.6284 18.2449 49.8012 18.0813 49.1252 17.754C48.4493 17.4267 47.8978 16.9786 47.4708 16.4101C47.044 15.8415 46.7282 15.1739 46.5236 14.4072C46.319 13.6407 46.2078 12.8093 46.19 11.9134ZM57.1305 11.3966H46.1902C46.2434 10.4663 46.4213 9.63073 46.7237 8.88994C47.0262 8.149 47.4219 7.51585 47.9112 6.9905C48.4003 6.465 48.9697 6.06452 49.619 5.78874C50.2682 5.51311 50.9665 5.37522 51.7136 5.37522C52.6032 5.37522 53.3857 5.53467 54.0619 5.85342C54.7377 6.17216 55.3026 6.60724 55.7563 7.15849C56.2099 7.70973 56.5523 8.35157 56.7836 9.08367C57.0148 9.81593 57.1305 10.587 57.1305 11.3966ZM68.7381 9.0967H69.2717C69.2717 7.61496 68.827 6.53821 67.9376 5.86629C67.048 5.19437 65.8383 4.85841 64.3085 4.85841C63.4545 4.85841 62.7342 4.96186 62.147 5.16862C61.5601 5.37522 61.0798 5.64232 60.7061 5.96959C60.3326 6.29687 60.0658 6.65873 59.9056 7.05503C59.7455 7.45133 59.6654 7.83041 59.6654 8.19212C59.6654 8.91569 59.7988 9.49284 60.0658 9.92357C60.3326 10.3543 60.7506 10.6903 61.3198 10.9315C61.7112 11.1036 62.1558 11.2587 62.6541 11.3968C63.1522 11.5345 63.7303 11.6809 64.3886 11.8359C64.9756 11.9739 65.5537 12.1117 66.1231 12.2494C66.6923 12.3873 67.1948 12.5725 67.6306 12.805C68.0666 13.0377 68.4223 13.3348 68.6981 13.6967C68.9737 14.0584 69.1116 14.5323 69.1116 15.1179C69.1116 15.6866 68.9738 16.1689 68.6981 16.5651C68.4246 16.9593 68.0647 17.2903 67.6441 17.5343C67.2171 17.7841 66.7411 17.9649 66.2164 18.0769C65.6916 18.1889 65.1802 18.2449 64.6821 18.2449C63.0633 18.2449 61.8224 17.8961 60.9596 17.1984C60.0969 16.5006 59.6656 15.4023 59.6656 13.9033H59.1318C59.1318 15.5746 59.5988 16.7977 60.5327 17.5731C61.4667 18.3483 62.8498 18.736 64.6821 18.736C65.2691 18.736 65.8606 18.6713 66.4567 18.5421C67.0525 18.4129 67.5863 18.2019 68.0576 17.9089C68.5249 17.6201 68.9175 17.2311 69.205 16.772C69.4985 16.3067 69.6454 15.7382 69.6454 15.0663C69.6454 14.4288 69.5163 13.912 69.2584 13.5157C69.0004 13.1195 68.6625 12.7921 68.2443 12.5337C67.8263 12.2753 67.355 12.0729 66.8302 11.9265C66.3024 11.7792 65.7731 11.637 65.2424 11.4999C64.5892 11.334 63.9355 11.1703 63.2811 11.009C62.7209 10.8711 62.2005 10.7075 61.7202 10.5179C61.2577 10.3284 60.8885 10.0571 60.6127 9.70394C60.3369 9.35076 60.1992 8.84682 60.1992 8.19212C60.1992 8.0716 60.2348 7.85616 60.3059 7.5461C60.377 7.23588 60.5461 6.92148 60.8129 6.60274C61.0797 6.28415 61.4888 5.99984 62.0404 5.74996C62.5918 5.50024 63.3479 5.37522 64.3085 5.37522C64.9667 5.37522 65.567 5.44425 66.1096 5.58198C66.6522 5.71987 67.1192 5.9395 67.5105 6.24103C67.9019 6.54256 68.2043 6.92583 68.4178 7.39099C68.6313 7.85631 68.7381 8.42478 68.7381 9.0967ZM81.0927 9.0967H81.6264C81.6264 7.61496 81.1818 6.53821 80.2923 5.86629C79.4027 5.19437 78.1931 4.85841 76.6631 4.85841C75.8093 4.85841 75.0888 4.96186 74.5018 5.16862C73.9147 5.37522 73.4344 5.64232 73.0609 5.96959C72.6872 6.29687 72.4204 6.65873 72.2603 7.05503C72.1001 7.45133 72.0202 7.83041 72.0202 8.19212C72.0202 8.91569 72.1536 9.49284 72.4206 9.92357C72.6872 10.3543 73.1054 10.6903 73.6746 10.9315C74.066 11.1036 74.5106 11.2587 75.0087 11.3968C75.5068 11.5345 76.085 11.6809 76.7432 11.8359C77.3303 11.9739 77.9085 12.1117 78.4777 12.2494C79.047 12.3873 79.5494 12.5725 79.9854 12.805C80.4212 13.0377 80.777 13.3348 81.0527 13.6967C81.3285 14.0584 81.4664 14.5323 81.4664 15.1179C81.4664 15.6866 81.3285 16.1689 81.0527 16.5651C80.7793 16.9593 80.4195 17.2903 79.9988 17.5343C79.5717 17.7841 79.0959 17.9649 78.5711 18.0769C78.0464 18.1889 77.5348 18.2449 77.0368 18.2449C75.4179 18.2449 74.1772 17.8961 73.3144 17.1984C72.4515 16.5006 72.0202 15.4023 72.0202 13.9033H71.4865C71.4865 15.5746 71.9534 16.7977 72.8874 17.5731C73.8213 18.3483 75.2044 18.736 77.0368 18.736C77.6239 18.736 78.2153 18.6713 78.8113 18.5421C79.4071 18.4129 79.9409 18.2019 80.4124 17.9089C80.8797 17.6201 81.2723 17.2311 81.5597 16.772C81.8533 16.3067 82 15.7382 82 15.0663C82 14.4288 81.8711 13.912 81.6131 13.5157C81.3552 13.1195 81.0173 12.7921 80.5991 12.5337C80.1811 12.2753 79.7096 12.0729 79.1849 11.9265C78.6572 11.7792 78.1279 11.637 77.5971 11.4999C76.944 11.334 76.2902 11.1703 75.6359 11.009C75.0755 10.8711 74.5551 10.7075 74.0748 10.5179C73.6123 10.3284 73.2431 10.0571 72.9675 9.70394C72.6917 9.35076 72.5538 8.84682 72.5538 8.19212C72.5538 8.0716 72.5894 7.85616 72.6607 7.5461C72.7318 7.23588 72.9009 6.92148 73.1675 6.60274C73.4344 6.28415 73.8436 5.99984 74.395 5.74996C74.9466 5.50024 75.7025 5.37522 76.6633 5.37522C77.3215 5.37522 77.9218 5.44425 78.4644 5.58198C79.007 5.71987 79.4739 5.9395 79.8653 6.24103C80.2567 6.54256 80.5591 6.92583 80.7726 7.39099C80.986 7.85631 81.0927 8.42478 81.0927 9.0967Z" fill="#1E0B00"/>
</svg>
