<svg width="74" height="24" viewBox="0 0 74 24" fill="none" xmlns="http://www.w3.org/2000/svg">
<path d="M40.0962 12.1295H36.5639C36.4728 12.1295 36.3988 12.2076 36.3988 12.3036V14.1244C36.3988 14.2204 36.4728 14.2986 36.5638 14.2986H37.9419V16.5608C37.9419 16.5608 37.6324 16.672 36.777 16.672C35.7678 16.672 34.3579 16.2831 34.3579 13.0148C34.3579 9.74574 35.826 9.31566 37.2042 9.31566C38.3972 9.31566 38.9112 9.53706 39.2382 9.64378C39.341 9.67699 39.4361 9.56914 39.4361 9.47297L39.83 7.71374C39.83 7.66877 39.8156 7.61463 39.767 7.57788C39.6342 7.47799 38.8239 7 36.7769 7C34.4189 7 32 8.05768 32 13.1423C32 18.227 34.7694 18.9847 37.1032 18.9847C39.0354 18.9847 40.2076 18.1142 40.2076 18.1142C40.256 18.0861 40.2611 18.0149 40.2611 17.9822V12.3036C40.2611 12.2076 40.1873 12.1295 40.0962 12.1295H40.0962ZM58.2907 7.63643C58.2907 7.53957 58.2178 7.46139 58.1267 7.46139H56.1378C56.1161 7.46148 56.0946 7.46608 56.0745 7.47492C56.0545 7.48377 56.0363 7.49669 56.021 7.51294C56.0057 7.52919 55.9936 7.54847 55.9854 7.56965C55.9772 7.59084 55.973 7.61353 55.9731 7.63643L55.9736 11.6887H52.8734V7.63651C52.8734 7.53965 52.8003 7.46147 52.7093 7.46147H50.7204C50.6765 7.46172 50.6346 7.4803 50.6038 7.51313C50.573 7.54595 50.5558 7.59033 50.556 7.63651V18.6088C50.556 18.7056 50.6299 18.7843 50.7204 18.7843H52.7092C52.8002 18.7843 52.8733 18.7056 52.8733 18.6088V13.9155H55.9735L55.9681 18.6087C55.9681 18.7055 56.0419 18.7842 56.1328 18.7842H58.1265C58.2175 18.7842 58.2904 18.7055 58.2905 18.6087V7.63651L58.2907 7.63643ZM43.8429 9.10343C43.8429 8.34844 43.2686 7.73822 42.5603 7.73822C41.8526 7.73822 41.278 8.34835 41.278 9.10343C41.278 9.85756 41.8526 10.4694 42.5603 10.4694C43.2686 10.4694 43.8429 9.85756 43.8429 9.10343ZM43.685 16.2998V11.2351C43.685 11.1389 43.6114 11.0603 43.5205 11.0603H41.5379C41.4469 11.0603 41.3656 11.1592 41.3656 11.2554V18.5117C41.3656 18.725 41.4916 18.7884 41.6547 18.7884H43.441C43.637 18.7884 43.685 18.6869 43.685 18.5083V16.2998ZM65.8922 11.0604H63.9185C63.828 11.0604 63.7543 11.139 63.7543 11.2358V16.6158C63.7543 16.6158 63.2529 17.0026 62.5412 17.0026C61.8296 17.0026 61.6408 16.6621 61.6408 15.9275V11.2358C61.6408 11.139 61.5672 11.0603 61.4766 11.0603H59.4735C59.3831 11.0603 59.309 11.139 59.309 11.2358V16.2828C59.309 18.4648 60.4626 18.9986 62.0495 18.9986C63.3514 18.9986 64.4009 18.2404 64.4009 18.2404C64.4009 18.2404 64.451 18.64 64.4735 18.6874C64.4962 18.7347 64.5551 18.7823 64.6187 18.7823L65.8931 18.7764C65.9835 18.7764 66.0576 18.6977 66.0576 18.6013L66.0569 11.2358C66.0569 11.139 65.9831 11.0604 65.8922 11.0604ZM70.4396 17.0067C69.755 16.9848 69.2907 16.6573 69.2907 16.6573V13.1825C69.2907 13.1825 69.7488 12.8864 70.3108 12.8335C71.0215 12.7664 71.7064 12.9927 71.7064 14.7802C71.7064 16.6651 71.3973 17.0371 70.4396 17.0067V17.0067ZM71.2181 10.8247C70.0971 10.8247 69.3346 11.352 69.3346 11.352V7.63643C69.3348 7.61357 69.3307 7.59091 69.3225 7.56973C69.3143 7.54856 69.3023 7.52929 69.287 7.51303C69.2718 7.49677 69.2537 7.48384 69.2337 7.47498C69.2137 7.46612 69.1923 7.4615 69.1706 7.46139H67.176C67.1543 7.46149 67.1328 7.4661 67.1128 7.47495C67.0928 7.48381 67.0746 7.49673 67.0594 7.51299C67.0441 7.52924 67.032 7.54851 67.0238 7.56969C67.0156 7.59087 67.0115 7.61355 67.0116 7.63643V18.6087C67.0116 18.7055 67.0853 18.7842 67.1762 18.7842H68.5601C68.6224 18.7842 68.6696 18.7505 68.7045 18.6911C68.7388 18.6321 68.7885 18.1852 68.7885 18.1852C68.7885 18.1852 69.604 19 71.1479 19C72.9605 19 74 18.0307 74 14.6486C74 11.2665 72.3399 10.8246 71.2181 10.8246V10.8247ZM49.4094 11.0413H47.9175L47.9152 8.96342C47.9152 8.8848 47.8768 8.84546 47.7905 8.84546H45.7575C45.6784 8.84546 45.636 8.88212 45.636 8.96221V11.1096C45.636 11.1096 44.6171 11.3688 44.5482 11.3898C44.5139 11.4003 44.4837 11.4223 44.4622 11.4524C44.4407 11.4826 44.4291 11.5193 44.4291 11.557V12.9064C44.4291 13.0035 44.5026 13.0817 44.5936 13.0817H45.636V16.3279C45.636 18.7391 47.2402 18.976 48.3227 18.976C48.8174 18.976 49.4091 18.8084 49.5068 18.7705C49.5658 18.7476 49.6001 18.6831 49.6001 18.6131L49.6018 17.1287C49.6018 17.0319 49.5243 16.9536 49.4369 16.9536C49.3499 16.9536 49.1276 16.9908 48.8986 16.9908C48.1658 16.9908 47.9175 16.6316 47.9175 16.1667L47.9174 13.0818H49.4094C49.4311 13.0817 49.4527 13.0771 49.4727 13.0682C49.4927 13.0594 49.5109 13.0464 49.5262 13.0301C49.5415 13.0138 49.5536 12.9945 49.5618 12.9733C49.57 12.9521 49.5741 12.9293 49.574 12.9064V11.2163C49.574 11.1194 49.5004 11.0414 49.4094 11.0414V11.0413Z" fill="#1E0B00"/>
<path d="M12.5008 0.000768932C5.59488 0.000768932 0 5.51177 0 12.3038C0 17.7426 3.58147 22.3524 8.54507 23.9787C9.17245 24.0948 9.39902 23.7142 9.39902 23.385C9.39902 23.0929 9.39199 22.3201 9.38731 21.2943C5.90818 22.0356 5.17532 19.6403 5.17532 19.6403C4.60576 18.2224 3.78383 17.8417 3.78383 17.8417C2.65251 17.0813 3.87368 17.0974 3.87368 17.0974C5.12688 17.1812 5.7863 18.3623 5.7863 18.3623C6.90121 20.2447 8.71148 19.7003 9.42793 19.3835C9.53732 18.5907 9.86312 18.0455 10.2178 17.7418C7.44265 17.4334 4.5245 16.3761 4.5245 11.6618C4.5245 10.3153 5.00891 9.21884 5.80974 8.35763C5.67145 8.04928 5.24798 6.79591 5.9199 5.10116C5.9199 5.10116 6.96606 4.77282 9.35762 6.36299C10.3764 6.0903 11.4271 5.95043 12.4828 5.94699C13.5454 5.95391 14.6072 6.09079 15.608 6.36299C17.9855 4.77282 19.0309 5.10116 19.0309 5.10116C19.702 6.79591 19.2785 8.04851 19.1567 8.35763C19.9497 9.21884 20.4341 10.3161 20.4341 11.6618C20.4341 16.3869 17.512 17.4288 14.7337 17.7295C15.1681 18.0978 15.5752 18.8552 15.5752 20.0048C15.5752 21.6503 15.5596 22.976 15.5596 23.3766C15.5596 23.6965 15.7783 24.0809 16.4221 23.9571C21.4224 22.3477 25 17.7341 25 12.3031C25 5.511 19.4051 0 12.4992 0L12.5008 0.000768932Z" fill="#1E0B00"/>
</svg>
