<svg width="28" height="32" viewBox="0 0 28 32" fill="none" xmlns="http://www.w3.org/2000/svg">
<path d="M16.6891 3.66797L23.1577 7.46792C23.4583 7.14583 23.8287 6.89945 24.2393 6.7483C24.6498 6.59715 25.0894 6.54541 25.5231 6.59717C25.9567 6.64893 26.3726 6.80277 26.7376 7.04649C27.1027 7.29022 27.4069 7.61711 27.6261 8.00125C27.8426 8.38611 27.9683 8.81691 27.9932 9.25964C28.018 9.70237 27.9413 10.1449 27.7692 10.5523C27.5971 10.9598 27.3343 11.3209 27.0014 11.6073C26.6686 11.8937 26.2748 12.0975 25.8513 12.2025V19.8011C26.2761 19.9038 26.6714 20.1062 27.0054 20.3923C27.3394 20.6784 27.6029 21.0401 27.7746 21.4484C27.9464 21.8568 28.0218 22.3004 27.9946 22.7437C27.9674 23.187 27.8385 23.6176 27.6182 24.0011C27.3957 24.3918 27.0853 24.7234 26.7124 24.9685C26.3396 25.2137 25.9149 25.3654 25.4733 25.4114C25.0316 25.4573 24.5855 25.3961 24.1716 25.2327C23.7577 25.0694 23.3878 24.8086 23.0921 24.4717L16.6628 28.2477C16.7908 28.6397 16.8335 29.0552 16.7881 29.4656C16.7428 29.8761 16.6103 30.2716 16.4 30.6248C16.1897 30.9781 15.9064 31.2807 15.5699 31.5117C15.2333 31.7428 14.8515 31.8968 14.4507 31.963C14.05 32.0293 13.6399 32.0063 13.2487 31.8956C12.8575 31.7848 12.4947 31.5891 12.1852 31.3217C11.8757 31.0544 11.6269 30.722 11.4561 30.3473C11.2852 29.9726 11.1964 29.5647 11.1957 29.1517C11.1957 28.8784 11.2337 28.605 11.311 28.3397L4.84108 24.5437C4.5399 24.8638 4.16957 25.1082 3.75943 25.2574C3.34929 25.4067 2.91062 25.4567 2.47818 25.4036C2.04573 25.3504 1.6314 25.1955 1.26801 24.9512C0.904613 24.7069 0.602147 24.3799 0.384574 23.996C0.167002 23.6122 0.0403023 23.1821 0.0145153 22.7398C-0.0112717 22.2975 0.0645624 21.8551 0.236009 21.4478C0.407455 21.0405 0.669802 20.6794 1.00226 20.3931C1.33472 20.1068 1.72816 19.9032 2.1514 19.7985L2.15271 12.1999C1.72825 12.0965 1.33336 11.8938 0.999412 11.6079C0.665464 11.3221 0.401667 10.9609 0.228985 10.5532C0.0563038 10.1454 -0.0205018 9.70233 0.00467228 9.2591C0.0298464 8.81587 0.156306 8.38472 0.374002 7.99992C0.59252 7.61557 0.896085 7.28831 1.26061 7.04411C1.62514 6.7999 2.0406 6.64547 2.47403 6.59306C2.90746 6.54065 3.34693 6.5917 3.75758 6.74218C4.16824 6.89265 4.53876 7.1384 4.83977 7.45992L11.3123 3.65997C11.1885 3.23458 11.164 2.78567 11.2407 2.34896C11.3175 1.91224 11.4934 1.49978 11.7544 1.14439C12.0155 0.788996 12.3545 0.500487 12.7444 0.301817C13.1344 0.103148 13.5646 -0.000197443 14.0007 5.26467e-06C14.4378 -0.000849411 14.8691 0.102369 15.2599 0.301404C15.6508 0.500439 15.9905 0.789765 16.2517 1.14624C16.513 1.50271 16.6886 1.91643 16.7646 2.35431C16.8405 2.79219 16.8147 3.24207 16.6891 3.66797ZM16.014 4.83729C15.99 4.86438 15.9646 4.89019 15.938 4.91462L24.4068 19.8345C24.4409 19.8225 24.4802 19.8131 24.5143 19.8038V12.1945C24.1574 12.1045 23.8214 11.9438 23.5256 11.7217C23.2298 11.4995 22.9799 11.2202 22.7902 10.8997C22.6005 10.5793 22.4748 10.2239 22.4203 9.85402C22.3657 9.48411 22.3833 9.10688 22.4721 8.74391L22.4971 8.64791L16.014 4.83729ZM12.0621 4.91595L11.9834 4.83595L5.50039 8.63858C5.60241 8.99804 5.6338 9.37444 5.59276 9.74625C5.55172 10.1181 5.43907 10.478 5.26122 10.8055C5.08338 11.133 4.84384 11.4217 4.55629 11.655C4.26874 11.8883 3.93882 12.0616 3.58537 12.1652L3.48575 12.1932V19.8038L3.59586 19.8345L12.0647 4.91462L12.0621 4.91595ZM14.7832 5.59194C14.272 5.74128 13.7307 5.74128 13.2208 5.59194L4.75326 20.5104C5.13862 20.8878 5.41126 21.3704 5.53972 21.8984H22.463C22.5901 21.3678 22.8654 20.8838 23.2534 20.5064L14.7832 5.59194ZM16.0756 27.2277L22.5154 23.4437C22.4962 23.3814 22.4796 23.3182 22.4656 23.2544H5.53579L5.50826 23.3651L11.9821 27.1677C12.2432 26.8913 12.5567 26.6716 12.9037 26.522C13.2506 26.3723 13.6238 26.2958 14.0007 26.297C14.8225 26.297 15.5605 26.6557 16.0756 27.2277Z" fill="#1E0B00"/>
</svg>
