<svg width="26" height="26" viewBox="0 0 26 26" fill="none" xmlns="http://www.w3.org/2000/svg">
<path d="M0 0H25.6258V25.6258H0V0Z" fill="#1E0B00"/>
<path d="M16.8737 19.3833C17.0921 19.8268 17.4313 20.1996 17.8523 20.4587C18.2733 20.7178 18.759 20.8526 19.2533 20.8477C20.2509 20.8477 20.8888 20.3489 20.8888 19.6579C20.8888 18.8342 20.2335 18.5395 19.1352 18.059L18.533 17.8009C16.7941 17.0605 15.6409 16.1334 15.6409 14.1731C15.6409 12.3673 17.0138 10.9918 19.1672 10.9918C19.8644 10.9414 20.5609 11.0975 21.1699 11.4404C21.7789 11.7833 22.2735 12.298 22.592 12.9201L20.7094 14.1236C20.5867 13.8151 20.3732 13.5512 20.0972 13.3668C19.8211 13.1825 19.4955 13.0864 19.1636 13.0913C19.0188 13.0768 18.8725 13.0926 18.7341 13.1378C18.5958 13.1829 18.4683 13.2564 18.3599 13.3535C18.2515 13.4506 18.1645 13.5693 18.1045 13.7019C18.0445 13.8345 18.0128 13.9781 18.0113 14.1236C18.0113 14.8457 18.4589 15.1386 19.4921 15.588L20.0943 15.8461C22.1408 16.7237 23.2976 17.6179 23.2976 19.6286C23.2976 21.7967 21.5944 22.9847 19.3073 22.9847C18.4161 23.0415 17.5276 22.8391 16.7489 22.4021C15.9702 21.9651 15.3346 21.3121 14.9188 20.5219L16.8737 19.3833ZM8.36687 19.592C8.74485 20.2629 9.08897 20.8303 9.91632 20.8303C10.7071 20.8303 11.2068 20.5209 11.2068 19.3174V11.1291H13.6147V19.3495C13.6147 21.8425 12.1503 22.9774 10.0188 22.9774C9.26538 23.0185 8.5171 22.8308 7.87237 22.4387C7.22764 22.0467 6.71662 21.4688 6.40649 20.7809L8.36687 19.592Z" fill="#FFE1D0"/>
</svg>
