<svg width="22" height="23" viewBox="0 0 22 23" fill="none" xmlns="http://www.w3.org/2000/svg">
<path d="M16.5 11.5C16.5 9.23833 15.2533 7.29611 13.4444 6.35056V9.17444L16.4389 12.305C16.4756 12.0494 16.5 11.7811 16.5 11.5V11.5ZM19.5556 11.5C19.5556 12.7011 19.3111 13.8256 18.8956 14.8733L20.7411 16.8028C21.5478 15.2183 22 13.4167 22 11.5C22 6.03111 18.3456 1.45667 13.4444 0.293889V2.92611C16.9767 4.025 19.5556 7.44944 19.5556 11.5ZM1.55222 0L0 1.62278L5.78111 7.66667H0V15.3333H4.88889L11 21.7222V13.1228L16.1944 18.5533C15.3756 19.2178 14.4589 19.7417 13.4444 20.0611V22.6933C15.1311 22.2972 16.6589 21.4794 17.9544 20.3806L20.4478 23L22 21.3772L11 9.87722L1.55222 0ZM11 1.27778L8.44556 3.94833L11 6.61889V1.27778Z" fill="#1E0B00"/>
</svg>
