<svg width="49" height="30" viewBox="0 0 49 30" fill="none" xmlns="http://www.w3.org/2000/svg">
<path d="M23.9396 29.64C23.7755 29.64 23.6223 29.5963 23.4801 29.5197L22.0249 28.6554C21.806 28.535 21.9155 28.4912 21.9812 28.4694C22.2765 28.3709 22.3313 28.3489 22.6376 28.174C22.6705 28.152 22.7143 28.163 22.747 28.1849L23.8631 28.8523C23.9068 28.8742 23.9615 28.8742 23.9943 28.8523L28.3599 26.3248C28.4036 26.303 28.4256 26.2591 28.4256 26.2045V21.1606C28.4256 21.1058 28.4036 21.0622 28.3599 21.0402L23.9943 18.5237C23.9506 18.5018 23.8958 18.5018 23.8631 18.5237L19.4975 21.0402C19.4537 21.0621 19.4318 21.1168 19.4318 21.1605V26.2044C19.4318 26.2483 19.4537 26.3029 19.4975 26.3248L20.6901 27.0141C21.3356 27.3423 21.7404 26.9594 21.7404 26.5765V21.5982C21.7404 21.5326 21.7952 21.4669 21.8717 21.4669H22.4297C22.4954 21.4669 22.561 21.5216 22.561 21.5982V26.5765C22.561 27.4408 22.0905 27.9441 21.2699 27.9441C21.0183 27.9441 20.8214 27.9441 20.2633 27.6705L19.1145 27.0141C18.8301 26.8501 18.655 26.5436 18.655 26.2154V21.1715C18.655 20.8433 18.8301 20.5369 19.1145 20.3728L23.4801 17.8453C23.7537 17.6922 24.1257 17.6922 24.3992 17.8453L28.7647 20.3728C29.0492 20.5369 29.2243 20.8433 29.2243 21.1715V26.2154C29.2243 26.5436 29.0492 26.8501 28.7647 27.0141L24.3992 29.5416C24.2569 29.6073 24.0928 29.64 23.9397 29.64H23.9396ZM25.2854 26.1717C23.3707 26.1717 22.9768 25.2964 22.9768 24.5524C22.9768 24.4867 23.0315 24.4211 23.1081 24.4211H23.6771C23.7427 24.4211 23.7974 24.4648 23.7974 24.5305C23.885 25.1104 24.1366 25.3948 25.2964 25.3948C26.2154 25.3948 26.6094 25.1869 26.6094 24.6946C26.6094 24.4101 26.4999 24.2023 25.0666 24.06C23.874 23.9396 23.13 23.6771 23.13 22.7252C23.13 21.8389 23.8741 21.3137 25.1213 21.3137C26.5217 21.3137 27.2111 21.7952 27.2987 22.8454C27.2987 22.8784 27.2877 22.9111 27.2658 22.944C27.2439 22.9658 27.2111 22.9877 27.1783 22.9877H26.6093C26.5546 22.9877 26.4999 22.944 26.489 22.8893C26.3577 22.2875 26.0185 22.0905 25.1213 22.0905C24.1147 22.0905 23.9943 22.4407 23.9943 22.7032C23.9943 23.0206 24.1366 23.119 25.4933 23.2941C26.8391 23.4692 27.4737 23.7208 27.4737 24.6617C27.4627 25.6246 26.675 26.1717 25.2854 26.1717Z" fill="#1E0B00"/>
<path d="M10.3942 9.91285C10.3942 9.71595 10.2848 9.52983 10.1098 9.43137L5.47067 6.76174C5.39399 6.71791 5.30651 6.69604 5.21904 6.68506H5.17521C5.08774 6.68506 5.00017 6.71791 4.92358 6.76174L0.284477 9.43137C0.109341 9.52983 0 9.71585 0 9.91285L0.0109815 17.0903C0.0109815 17.1887 0.0656995 17.2872 0.153173 17.331C0.24074 17.3857 0.350082 17.3857 0.426763 17.331L3.18396 15.7555C3.35901 15.657 3.46844 15.471 3.46844 15.2741V11.9151C3.46844 11.7182 3.57778 11.5321 3.75292 11.4337L4.92358 10.7553C5.01115 10.7006 5.1096 10.6786 5.20806 10.6786C5.30651 10.6786 5.40497 10.7006 5.48165 10.7553L6.65231 11.4337C6.82745 11.5321 6.93679 11.7181 6.93679 11.9151V15.2741C6.93679 15.471 7.04622 15.657 7.22126 15.7555L9.97847 17.331C10.066 17.3857 10.1754 17.3857 10.2629 17.331C10.3505 17.2872 10.4052 17.1887 10.4052 17.0903L10.3942 9.91285Z" fill="#1E0B00"/>
<path d="M32.6927 0.0328734C32.6052 -0.0109578 32.4957 -0.0109578 32.4191 0.0328734C32.3316 0.0875915 32.2769 0.175065 32.2769 0.273519V7.38544C32.2769 7.45105 32.2441 7.51665 32.1784 7.56048C32.1128 7.59324 32.0471 7.59324 31.9815 7.56048L30.8217 6.89308C30.7367 6.84466 30.6405 6.81921 30.5427 6.81921C30.4449 6.81921 30.3487 6.84466 30.2637 6.89308L25.6246 9.57369C25.4495 9.67215 25.3401 9.85817 25.3401 10.0551V15.4053C25.3401 15.6022 25.4495 15.7884 25.6246 15.8868L30.2637 18.5674C30.3487 18.6158 30.4449 18.6413 30.5427 18.6413C30.6405 18.6413 30.7367 18.6158 30.8217 18.5674L35.4608 15.8868C35.6359 15.7884 35.7453 15.6023 35.7453 15.4053V2.06795C35.7453 1.86006 35.6359 1.67413 35.4608 1.57558L32.6928 0.0328734H32.6927ZM32.266 13.6438C32.266 13.6986 32.2441 13.7423 32.2003 13.7642L30.6138 14.6832C30.5917 14.694 30.5674 14.6996 30.5427 14.6996C30.518 14.6996 30.4937 14.694 30.4716 14.6832L28.8851 13.7642C28.8413 13.7423 28.8194 13.6876 28.8194 13.6438V11.8057C28.8194 11.751 28.8413 11.7072 28.8851 11.6854L30.4716 10.7662C30.4937 10.7554 30.518 10.7498 30.5427 10.7498C30.5674 10.7498 30.5917 10.7554 30.6138 10.7662L32.2003 11.6854C32.2441 11.7071 32.266 11.7619 32.266 11.8057V13.6438Z" fill="#1E0B00"/>
<path d="M48.1308 11.762C48.3059 11.6635 48.4044 11.4775 48.4044 11.2805V9.97853C48.4044 9.78162 48.2949 9.59559 48.1308 9.49714L43.5245 6.82751C43.4395 6.77911 43.3434 6.75366 43.2455 6.75366C43.1477 6.75366 43.0516 6.77911 42.9665 6.82751L38.3274 9.50803C38.1523 9.60648 38.043 9.7925 38.043 9.98951V15.3398C38.043 15.5367 38.1523 15.7227 38.3274 15.8211L42.9337 18.447C43.1088 18.5455 43.3166 18.5455 43.4808 18.447L46.2707 16.8935C46.3583 16.8497 46.413 16.7513 46.413 16.6528C46.413 16.5543 46.3583 16.4559 46.2707 16.4121L41.6098 13.7314C41.5223 13.6768 41.4676 13.5893 41.4676 13.4908V11.8168C41.4676 11.7183 41.5223 11.6199 41.6098 11.576L43.065 10.7445C43.1076 10.7177 43.1569 10.7035 43.2072 10.7035C43.2576 10.7035 43.3069 10.7177 43.3495 10.7445L44.8046 11.576C44.8922 11.6308 44.9469 11.7182 44.9469 11.8168V13.1297C44.9469 13.2282 45.0016 13.3266 45.0891 13.3704C45.1767 13.4251 45.286 13.4251 45.3736 13.3704L48.1308 11.762Z" fill="#1E0B00"/>
<path d="M43.1744 11.5103C43.1906 11.4996 43.2096 11.4939 43.2291 11.4939C43.2485 11.4939 43.2675 11.4996 43.2837 11.5103L44.17 12.0245C44.2029 12.0463 44.2247 12.0791 44.2247 12.123V13.1514C44.2247 13.1952 44.2029 13.228 44.17 13.2499L43.2837 13.7641C43.2675 13.7748 43.2485 13.7805 43.2291 13.7805C43.2096 13.7805 43.1906 13.7748 43.1744 13.7641L42.2881 13.2499C42.2553 13.228 42.2334 13.1952 42.2334 13.1514V12.123C42.2334 12.0791 42.2553 12.0463 42.2881 12.0245L43.1744 11.5103Z" fill="#1E0B00"/>
<mask id="mask0" style="mask-type:alpha" maskUnits="userSpaceOnUse" x="12" y="6" width="12" height="13">
<path d="M18.1517 6.84936C18.0667 6.80096 17.9705 6.77551 17.8727 6.77551C17.7749 6.77551 17.6787 6.80096 17.5937 6.84936L12.9875 9.50791C12.8123 9.60637 12.7139 9.79239 12.7139 9.9893V15.3178C12.7139 15.5147 12.8233 15.7007 12.9875 15.7992L17.5937 18.4579C17.6787 18.5063 17.7749 18.5318 17.8727 18.5318C17.9705 18.5318 18.0667 18.5063 18.1517 18.4579L22.758 15.7992C22.9331 15.7007 23.0316 15.5147 23.0316 15.3178V9.98939C23.0316 9.79249 22.9221 9.60646 22.758 9.50801L18.1517 6.84936Z" fill="#1E0B00"/>
</mask>
<g mask="url(#mask0)">
<path d="M18.1517 6.84936C18.0667 6.80096 17.9705 6.77551 17.8727 6.77551C17.7749 6.77551 17.6787 6.80096 17.5937 6.84936L12.9875 9.50791C12.8123 9.60637 12.7139 9.79239 12.7139 9.9893V15.3178C12.7139 15.5147 12.8233 15.7007 12.9875 15.7992L17.5937 18.4579C17.6787 18.5063 17.7749 18.5318 17.8727 18.5318C17.9705 18.5318 18.0667 18.5063 18.1517 18.4579L22.758 15.7992C22.9331 15.7007 23.0316 15.5147 23.0316 15.3178V9.98939C23.0316 9.79249 22.9221 9.60646 22.758 9.50801L18.1517 6.84936Z" fill="#1E0B00"/>
<path d="M17.5823 6.84934L12.9651 9.5079C12.7899 9.60645 12.6697 9.79256 12.6697 9.98947V15.3179C12.6697 15.4493 12.7244 15.5696 12.8119 15.668L17.9981 6.78364C17.8668 6.76177 17.7136 6.77266 17.5823 6.84924V6.84934Z" fill="#1E0B00"/>
<path d="M18.0315 18.5127C18.0752 18.5017 18.1191 18.4799 18.1628 18.458L22.78 15.7992C22.9552 15.7008 23.0645 15.5148 23.0645 15.3179V9.98938C23.0645 9.84719 22.9988 9.7049 22.9004 9.60645L18.0316 18.5127H18.0315Z" fill="#1E0B00"/>
<path d="M22.7691 9.50805L18.141 6.8494C18.0955 6.82643 18.0478 6.8081 17.9987 6.79468L12.8125 15.6791C12.8555 15.7315 12.9073 15.776 12.9658 15.8104L17.5939 18.4691C17.7252 18.5457 17.8784 18.5676 18.0206 18.5237L22.8895 9.61758C22.8567 9.57384 22.8128 9.5409 22.7691 9.50814V9.50805Z" fill="#1E0B00"/>
<path d="M23.0643 15.3178V9.98933C23.0643 9.79243 22.944 9.6064 22.7689 9.50795L18.1405 6.8493C18.087 6.81626 18.0276 6.79397 17.9656 6.78369L23.0313 15.4382C23.0532 15.4054 23.0642 15.3616 23.0642 15.3179L23.0643 15.3178Z" fill="#1E0B00"/>
<path d="M12.9655 9.50793C12.7906 9.60638 12.6702 9.7925 12.6702 9.98941V15.3179C12.6702 15.5148 12.8015 15.7008 12.9655 15.7993L17.5937 18.458C17.7032 18.5236 17.8235 18.5456 17.9548 18.5236L12.9984 9.49695L12.9656 9.50793H12.9655Z" fill="#1E0B00"/>
<path fill-rule="evenodd" clip-rule="evenodd" d="M22.7798 15.7992C22.9111 15.7227 23.0096 15.5913 23.0534 15.4492L17.9765 6.78364C17.8452 6.76177 17.7029 6.77266 17.5827 6.84924L12.9873 9.4971L17.9436 18.5346C18.0157 18.5228 18.0857 18.5007 18.1515 18.469L22.7797 15.7993L22.7798 15.7992Z" fill="#1E0B00"/>
<path fill-rule="evenodd" clip-rule="evenodd" d="M22.78 15.7992L18.1627 18.4579C18.0975 18.4912 18.0273 18.5133 17.9548 18.5235L18.0424 18.6877L23.1629 15.7227V15.657L23.0316 15.4381C23.0097 15.5913 22.9113 15.7226 22.78 15.7992Z" fill="#1E0B00"/>
<path fill-rule="evenodd" clip-rule="evenodd" d="M22.78 15.7992L18.1627 18.4579C18.0975 18.4912 18.0273 18.5133 17.9548 18.5235L18.0424 18.6877L23.1629 15.7227V15.657L23.0316 15.4381C23.0097 15.5913 22.9113 15.7226 22.78 15.7992Z" fill="#1E0B00"/>
</g>
</svg>
