<svg width="33" height="28" viewBox="0 0 33 28" fill="none" xmlns="http://www.w3.org/2000/svg">
<path d="M27.1326 9.07537C26.7814 8.96046 26.4272 8.854 26.0704 8.75611C26.1303 8.52254 26.1855 8.29179 26.2345 8.0651C27.0386 4.34258 26.5129 1.34363 24.7174 0.356238C22.9958 -0.590344 20.1804 0.396683 17.337 2.75662C17.0568 2.98962 16.7827 3.22933 16.5152 3.47553C16.3361 3.31182 16.1539 3.15128 15.9685 2.99401C12.9885 0.470688 10.0014 -0.592803 8.20785 0.39742C6.48785 1.34695 5.97854 4.16617 6.70248 7.69409C6.7745 8.0435 6.85583 8.3911 6.94637 8.73656C6.52356 8.85114 6.11557 8.97308 5.72511 9.1029C2.23124 10.2646 0 12.0851 0 13.9735C0 15.9238 2.39534 17.8801 6.03436 19.0662C6.32938 19.162 6.62686 19.2507 6.92652 19.3324C6.8292 19.7045 6.7428 20.0791 6.66742 20.4557C5.97725 23.9224 6.51621 26.675 8.23157 27.6185C10.0033 28.5929 12.9769 27.5915 15.8722 25.1777C16.107 24.9815 16.3366 24.7797 16.5608 24.5725C16.8506 24.8391 17.148 25.0979 17.4529 25.3487C20.2576 27.6503 23.0276 28.5796 24.7412 27.6335C26.5112 26.6563 27.0866 23.6993 26.3397 20.1017C26.2808 19.8198 26.2149 19.5394 26.1418 19.2606C26.3506 19.2016 26.5556 19.1409 26.7554 19.0777C30.5385 17.8824 33 15.9499 33 13.9735C33 12.0782 30.6967 10.2454 27.1326 9.07537ZM26.3121 17.8016C26.1316 17.8585 25.9465 17.9135 25.7578 17.967C25.3401 16.706 24.7766 15.3653 24.0868 13.98C24.745 12.6278 25.2869 11.3041 25.6928 10.0515C26.0304 10.1446 26.358 10.2429 26.6738 10.3465C29.7276 11.3491 31.5903 12.8313 31.5903 13.9735C31.5903 15.19 29.5786 16.7694 26.3121 17.8016ZM24.9568 20.3628C25.287 21.9536 25.3341 23.3919 25.1153 24.5163C24.9189 25.5267 24.5236 26.2003 24.0348 26.4701C22.9949 27.0442 20.7709 26.298 18.3724 24.3296C18.0888 24.0964 17.8121 23.8558 17.5426 23.608C18.4725 22.6382 19.4018 21.5108 20.3088 20.2586C21.9041 20.1236 23.4113 19.9028 24.7781 19.6015C24.8454 19.8605 24.9052 20.1145 24.9568 20.3628ZM11.2504 26.3709C10.2344 26.713 9.42511 26.7229 8.93591 26.4539C7.89499 25.8814 7.46225 23.6712 8.05252 20.7065C8.12268 20.3562 8.20302 20.0078 8.29344 19.6617C9.64515 19.9469 11.1414 20.152 12.7404 20.2756C13.6536 21.5009 14.6097 22.6271 15.5733 23.6133C15.3685 23.8022 15.1589 23.9864 14.9446 24.1655C13.6642 25.2328 12.3812 25.99 11.2504 26.3709ZM6.49043 17.7941C4.88129 17.2696 3.5524 16.5879 2.64155 15.844C1.82299 15.1757 1.40985 14.5119 1.40985 13.9735C1.40985 12.8275 3.20126 11.3658 6.18918 10.3724C6.55179 10.252 6.93129 10.1382 7.3251 10.0315C7.73811 11.3125 8.27978 12.6518 8.93346 14.0062C8.27127 15.3806 7.72187 16.7413 7.30486 18.0374C7.03133 17.9627 6.75978 17.8816 6.49043 17.7941ZM8.08603 7.43581C7.46586 4.41326 7.87772 2.13323 8.91425 1.56098C10.0182 0.951478 12.4594 1.82049 15.0325 3.99935C15.2003 4.14175 15.3654 4.28704 15.5277 4.43515C14.5689 5.41701 13.6215 6.53484 12.7165 7.75285C11.1644 7.89005 9.6788 8.11034 8.31291 8.4055C8.22875 8.08418 8.1531 7.76089 8.08603 7.43593V7.43581ZM22.3208 10.7879C21.9981 10.2565 21.6636 9.73174 21.3172 9.21403C22.3701 9.34102 23.379 9.50956 24.3263 9.7156C24.0419 10.585 23.6874 11.4938 23.2702 12.4257C22.9652 11.8738 22.6486 11.3278 22.3208 10.7879ZM16.5159 5.39599C17.1661 6.06782 17.8173 6.81783 18.4578 7.63164C17.1585 7.57312 15.8569 7.57287 14.5575 7.63091C15.1987 6.82459 15.8555 6.07556 16.5159 5.39599ZM10.6737 10.7972C10.3499 11.3326 10.0393 11.8752 9.74209 12.4245C9.33165 11.496 8.98038 10.583 8.69357 9.70134C9.6351 9.50047 10.6391 9.33623 11.6854 9.21157C11.3352 9.73244 10.9979 10.2611 10.6737 10.797V10.7972ZM11.7154 18.8311C10.6345 18.716 9.61538 18.5602 8.6741 18.3648C8.96543 17.4674 9.32443 16.5349 9.74376 15.5865C10.0422 16.1362 10.3541 16.6791 10.6792 17.2149C11.0136 17.7656 11.3599 18.305 11.7154 18.8311ZM16.5548 22.6457C15.8865 21.9582 15.2201 21.1976 14.5692 20.3796C15.2011 20.4032 15.8453 20.4153 16.5 20.4153C17.1726 20.4153 17.8375 20.4009 18.492 20.3731C17.8494 21.2059 17.2006 21.9676 16.5548 22.6457ZM23.2834 15.5381C23.7246 16.4969 24.0963 17.4245 24.3915 18.3065C23.4348 18.5148 22.4017 18.6824 21.3132 18.807C21.662 18.2797 21.9998 17.7458 22.3263 17.2056C22.6583 16.6566 22.9774 16.1006 23.2834 15.5381ZM21.1052 16.5339C20.6053 17.3621 20.0773 18.1745 19.5221 18.9699C18.5163 19.0378 17.5083 19.0715 16.5 19.071C15.473 19.071 14.4741 19.0405 13.5122 18.981C12.9425 18.1875 12.4044 17.3737 11.8992 16.5413H11.8993C11.3965 15.7134 10.9268 14.8675 10.4913 14.0056C10.9257 13.1434 11.394 12.2972 11.8951 11.4686L11.895 11.4687C12.3959 10.64 12.9296 9.82961 13.4951 9.03947C14.4764 8.96866 15.4828 8.93178 16.4999 8.93178H16.5C17.5217 8.93178 18.5294 8.96903 19.5105 9.04033C20.0702 9.82929 20.6005 10.6368 21.1005 11.4615C21.6033 12.2882 22.0778 13.1304 22.5231 13.9865C22.0823 14.8514 21.6094 15.7011 21.1052 16.5339ZM24.0133 1.5209C25.1183 2.12868 25.5481 4.57959 24.8538 7.79367C24.8094 7.99872 24.7597 8.20758 24.7055 8.4194C23.3363 8.11796 21.8496 7.89386 20.2931 7.75458C19.3863 6.52316 18.4467 5.40361 17.5035 4.43441C17.7507 4.20717 18.0038 3.98582 18.2625 3.77057C20.6989 1.7487 22.9759 0.950372 24.0133 1.5209ZM16.5 11.1633C18.1274 11.1633 19.4468 12.4215 19.4468 13.9735C19.4468 15.5255 18.1274 16.7837 16.5 16.7837C14.8726 16.7837 13.5532 15.5255 13.5532 13.9735C13.5532 12.4215 14.8726 11.1633 16.5 11.1633Z" fill="#1E0B00"/>
</svg>
