<svg width="29" height="27" viewBox="0 0 29 27" fill="none" xmlns="http://www.w3.org/2000/svg">
<path d="M16.4588 25.8696C16.9735 25.5075 17.7089 24.928 18.1133 24.5659C25.1626 27.3244 27.4624 21.9329 27.2788 19.8752C27.0754 17.5967 24.2032 11.0943 14.4368 11.0942C13.9775 12.1544 12.6346 12.6862 11.5239 12.0525C10.1608 11.2748 10.1608 9.32004 11.5239 8.54238C12.5828 7.93817 13.8525 8.39353 14.3666 9.35585C20.296 9.32617 26.9434 11.8067 28.8022 18.7091C30.1429 23.687 24.5183 29.49 16.4588 25.8696ZM20.1068 18.8292C21.0878 18.7154 21.9382 17.9088 21.9382 16.816C21.9382 15.2606 20.216 14.2833 18.8457 15.061C17.6436 15.7432 17.4964 17.3311 18.4034 18.2357C15.1498 24.2107 7.88328 26.5469 4.04872 24.2792C1.92527 23.0233 -0.264456 18.5276 4.84067 14.3896C4.69357 13.9189 4.47296 13.1221 4.36268 12.5427C-4.81575 19.3556 1.79126 30.1961 12.1401 25.9745C14.938 24.8332 17.9717 22.8384 20.1068 18.8292H20.1068ZM8.91442 21.1423C10.2867 21.92 12.0112 20.9426 12.0112 19.3872C12.0112 18.0892 10.8102 17.1947 9.61518 17.3859C2.0245 3.4201 18.0059 -4.87341 20.0619 8.34187L21.9002 8.8851C20.5635 -1.74531 12.4941 -0.772601 9.90903 1.3804C7.97164 2.99403 2.79243 8.67192 8.14338 18.398C7.62778 19.3124 7.88476 20.5587 8.91442 21.1423Z" fill="#1E0B00"/>
</svg>
