<svg width="20" height="20" viewBox="0 0 20 20" fill="none" xmlns="http://www.w3.org/2000/svg">
<path d="M18.908 11.22C18.962 10.82 19 10.415 19 10C19 5.029 14.971 1 10 1C9.585 1 9.18 1.038 8.78 1.092C7.863 0.409 6.731 0 5.5 0C2.462 0 0 2.462 0 5.5C0 6.731 0.409 7.863 1.092 8.78C1.038 9.18 1 9.585 1 10C1 14.971 5.029 19 10 19C10.415 19 10.82 18.962 11.22 18.908C12.137 19.591 13.269 20 14.5 20C17.538 20 20 17.538 20 14.5C20 13.269 19.591 12.137 18.908 11.22ZM9.979 15C7.197 15 5.598 13.542 5.598 12.11C5.598 11.38 6.362 11.147 6.668 11.147C7.375 11.147 7.61 11.724 7.738 11.988C8.455 13.464 9.145 13.27 9.825 13.334C10.426 13.391 11.836 13.126 11.836 12.096C11.836 11.998 11.991 11.328 10.774 10.995C9.996 10.783 8.625 10.522 7.496 10.088C6.434 9.68 5.812 8.838 5.812 7.754C5.812 7.209 6.089 5 9.849 5C12.357 5 13.695 6.285 13.695 7.416C13.695 7.676 13.596 7.905 13.397 8.112C13.198 8.319 12.636 8.62 12.021 8.227C11.866 8.128 11.739 7.921 11.585 7.654C11.401 7.317 11.099 6.667 9.712 6.667C8.365 6.667 7.992 7.31 7.992 7.577C7.992 8.477 9.71 8.666 10.171 8.785C11.855 9.219 14.147 9.618 14.147 11.889C14.145 14.497 11.433 15 9.979 15Z" fill="#1E0B00"/>
</svg>
