<svg width="28" height="27" viewBox="0 0 28 27" fill="none" xmlns="http://www.w3.org/2000/svg">
<g clip-path="url(#clip0)">
<path d="M0 13.0238V26.0477H27.0495V0H0V13.0238Z" fill="#1E0B00"/>
<path d="M5.9817 13.1103L5.97314 14.177H9.49381V23.8105H11.9843V14.177H15.5049V13.131C15.5049 12.552 15.492 12.0683 15.4749 12.0559C15.462 12.0394 13.3195 12.0311 10.7219 12.0352L5.9947 12.0477L5.98181 13.1102L5.9817 13.1103Z" fill="#FFE1D0"/>
<path d="M21.8264 12.0174C22.5133 12.1828 23.0372 12.4762 23.518 12.9559C23.7671 13.2123 24.1363 13.6795 24.1664 13.7911C24.1748 13.8242 22.9985 14.585 22.2858 15.0108C22.26 15.0274 22.1569 14.9198 22.041 14.7544C21.6933 14.2666 21.3283 14.0557 20.7701 14.0185C19.9502 13.9647 19.422 14.3782 19.4263 15.0686C19.4263 15.2713 19.4563 15.3911 19.5422 15.5566C19.7226 15.9163 20.0574 16.1313 21.1094 16.5695C23.0457 17.3717 23.8743 17.9009 24.3897 18.6533C24.965 19.4927 25.0938 20.8322 24.703 21.8287C24.2737 22.9119 23.209 23.6479 21.7104 23.8918C21.2467 23.9704 20.1476 23.958 19.6495 23.8712C18.5633 23.6851 17.5328 23.1683 16.8974 22.4902C16.6483 22.2256 16.1631 21.5351 16.1932 21.4855C16.2061 21.469 16.3177 21.4029 16.4422 21.3325C16.5624 21.2664 17.0176 21.0141 17.4469 20.7744L18.2241 20.3402L18.3872 20.5718C18.6148 20.9066 19.1128 21.3656 19.4134 21.5185C20.2763 21.9569 21.4614 21.8948 22.0453 21.3903C22.2944 21.1713 22.3974 20.9439 22.3974 20.6089C22.3974 20.3071 22.3587 20.1748 22.1956 19.9475C21.9853 19.6581 21.5559 19.4141 20.3365 18.9056C18.9411 18.3267 18.34 17.967 17.7904 17.3964C17.4727 17.0657 17.1721 16.5364 17.0476 16.094C16.9446 15.7261 16.9187 14.804 17.0004 14.4319C17.2881 13.1336 18.3056 12.2283 19.774 11.9595C20.2506 11.8727 21.3583 11.9057 21.8264 12.0175V12.0174Z" fill="#FFE1D0"/>
</g>
<defs>
<clipPath id="clip0">
<rect width="27.0495" height="26.0477" fill="white"/>
</clipPath>
</defs>
</svg>
